<svg width="390" height="852" viewBox="0 0 390 852" fill="none" xmlns="http://www.w3.org/2000/svg">
<g clip-path="url(#clip0_51_454)">
<rect width="390" height="852" fill="#191919"/>
<path d="M299.5 87C289.024 87 278.977 91.1616 271.569 98.5693C264.162 105.977 260 116.024 260 126.5V166H220.5C210.024 166 199.977 170.162 192.569 177.569C185.162 184.977 181 195.024 181 205.5V284.5C181 294.976 185.162 305.023 192.569 312.431C199.977 319.838 210.024 324 220.5 324H260V363.5C260 373.976 264.162 384.023 271.569 391.431C278.977 398.838 289.024 403 299.5 403H378.5C388.976 403 399.023 398.838 406.431 391.431C413.838 384.023 418 373.976 418 363.5V324H457.5C467.976 324 478.023 319.838 485.431 312.431C492.838 305.023 497 294.976 497 284.5V205.5C497 195.024 492.838 184.977 485.431 177.569C478.023 170.162 467.976 166 457.5 166H418V126.5C418 116.024 413.838 105.977 406.431 98.5693C399.023 91.1616 388.976 87 378.5 87H299.5Z" fill="#0071BC" fill-opacity="0.25"/>
<path d="M29.5 377C19.024 377 8.97698 381.162 1.5693 388.569C-5.83839 395.977 -10 406.024 -10 416.5V456H-49.5C-59.9761 456 -70.023 460.162 -77.4307 467.569C-84.8384 474.977 -89 485.024 -89 495.5V574.5C-89 584.976 -84.8384 595.023 -77.4307 602.431C-70.023 609.838 -59.9761 614 -49.5 614H-10V653.5C-10 663.976 -5.83839 674.023 1.5693 681.431C8.97698 688.838 19.024 693 29.5 693H108.5C118.976 693 129.023 688.838 136.431 681.431C143.838 674.023 148 663.976 148 653.5V614H187.5C197.976 614 208.023 609.838 215.431 602.431C222.838 595.023 227 584.976 227 574.5V495.5C227 485.024 222.838 474.977 215.431 467.569C208.023 460.162 197.976 456 187.5 456H148V416.5C148 406.024 143.838 395.977 136.431 388.569C129.023 381.162 118.976 377 108.5 377H29.5Z" fill="#0071BC" fill-opacity="0.25"/>
<path d="M146.511 539L143.182 530.936H121.102L117.774 539H106.574L126.67 494.2H137.871L157.839 539H146.511ZM132.239 504.248L124.878 521.912H139.471L132.239 504.248ZM176.214 506.68C180.139 506.68 183.254 507.96 185.558 510.52C187.904 513.08 189.077 516.621 189.077 521.144V539H179.03V521.72C179.03 519.672 178.518 518.072 177.493 516.92C176.47 515.768 175.062 515.192 173.27 515.192C171.307 515.192 169.728 515.853 168.534 517.176C167.339 518.499 166.741 520.227 166.741 522.36V539H156.693V507.384H165.398L166.038 511.096C167.275 509.688 168.747 508.6 170.454 507.832C172.203 507.064 174.123 506.68 176.214 506.68ZM207.328 539.704C203.829 539.704 200.757 539.021 198.112 537.656C195.509 536.248 193.504 534.307 192.096 531.832C190.688 529.357 189.984 526.477 189.984 523.192C189.984 519.907 190.688 517.027 192.096 514.552C193.504 512.077 195.509 510.157 198.112 508.792C200.757 507.384 203.829 506.68 207.328 506.68C210.827 506.68 213.899 507.384 216.544 508.792C219.189 510.157 221.216 512.077 222.624 514.552C224.032 517.027 224.736 519.907 224.736 523.192C224.736 526.477 224.032 529.357 222.624 531.832C221.216 534.307 219.189 536.248 216.544 537.656C213.899 539.021 210.827 539.704 207.328 539.704ZM207.328 531.192C209.547 531.192 211.339 530.445 212.704 528.952C214.069 527.459 214.752 525.539 214.752 523.192C214.752 520.845 214.069 518.925 212.704 517.432C211.339 515.939 209.547 515.192 207.328 515.192C205.152 515.192 203.381 515.939 202.016 517.432C200.651 518.925 199.968 520.845 199.968 523.192C199.968 525.539 200.651 527.459 202.016 528.952C203.381 530.445 205.152 531.192 207.328 531.192ZM248.389 537.784C245.915 539.021 243.12 539.64 240.005 539.64C236.549 539.64 233.819 538.68 231.813 536.76C229.808 534.797 228.805 531.661 228.805 527.352V515.384H223.429V507.384H228.805V499.512L238.789 498.424V507.384H246.661V515.384H238.789V527.352C238.789 528.632 239.109 529.592 239.749 530.232C240.389 530.829 241.264 531.128 242.373 531.128C243.611 531.128 244.827 530.829 246.021 530.232L248.389 537.784ZM263.423 506.68C266.879 506.68 269.866 507.341 272.383 508.664C274.9 509.944 276.82 511.779 278.143 514.168C279.508 516.515 280.191 519.267 280.191 522.424C280.191 523.448 280.084 524.707 279.871 526.2H256.639C256.938 527.821 257.812 529.144 259.263 530.168C260.714 531.149 262.57 531.64 264.831 531.64C266.41 531.64 267.946 531.405 269.439 530.936C270.932 530.467 272.212 529.805 273.279 528.952L278.527 534.584C276.735 536.248 274.602 537.528 272.127 538.424C269.695 539.32 267.092 539.768 264.319 539.768C260.65 539.768 257.471 539.107 254.783 537.784C252.095 536.419 250.026 534.499 248.575 532.024C247.124 529.549 246.399 526.627 246.399 523.256C246.399 520.013 247.103 517.133 248.511 514.616C249.962 512.099 251.967 510.157 254.527 508.792C257.087 507.384 260.052 506.68 263.423 506.68ZM263.743 514.616C261.738 514.616 260.095 515.128 258.815 516.152C257.578 517.176 256.874 518.605 256.703 520.44H270.655C270.527 518.605 269.844 517.176 268.607 516.152C267.412 515.128 265.791 514.616 263.743 514.616Z" fill="#F2F0EF"/>
<path d="M40.8994 578.98L39.2394 573.7H39.2194L37.5194 578.98H40.8994ZM45.5594 584H42.5394L41.6994 581.26H36.7994L35.8594 584H32.9194L37.6594 570.72H40.8794L45.5594 584ZM54.1431 577.14H51.6431C51.5031 576.18 50.9831 575.84 49.8031 575.84C48.8231 575.84 48.2631 576.08 48.2631 576.66C48.2631 577.24 48.8031 577.48 49.8631 577.78C50.9831 578.1 52.0431 578.32 52.8031 578.62C53.8431 579.04 54.4231 579.72 54.4231 581C54.4231 583.04 52.9231 584.26 50.1231 584.26C47.1031 584.26 45.4231 582.84 45.3831 580.84H48.0631C48.0631 581.76 48.8431 582.3 50.1031 582.3C51.0231 582.3 51.8431 582.02 51.8431 581.28C51.8431 580.58 51.1031 580.36 50.2631 580.16C48.6031 579.76 47.6831 579.48 46.9831 579.04C46.0631 578.46 45.7431 577.7 45.7431 576.82C45.7431 575.16 46.8831 573.9 49.8831 573.9C52.7231 573.9 54.0031 575.02 54.1431 577.14ZM68.4009 577.14H65.9009C65.7609 576.18 65.2409 575.84 64.0609 575.84C63.0809 575.84 62.5209 576.08 62.5209 576.66C62.5209 577.24 63.0609 577.48 64.1209 577.78C65.2409 578.1 66.3009 578.32 67.0609 578.62C68.1009 579.04 68.6809 579.72 68.6809 581C68.6809 583.04 67.1809 584.26 64.3809 584.26C61.3609 584.26 59.6809 582.84 59.6409 580.84H62.3209C62.3209 581.76 63.1009 582.3 64.3609 582.3C65.2809 582.3 66.1009 582.02 66.1009 581.28C66.1009 580.58 65.3609 580.36 64.5209 580.16C62.8609 579.76 61.9409 579.48 61.2409 579.04C60.3209 578.46 60.0009 577.7 60.0009 576.82C60.0009 575.16 61.1409 573.9 64.1409 573.9C66.9809 573.9 68.2609 575.02 68.4009 577.14ZM78.2745 584H75.8145V582.62C75.1345 583.74 74.1145 584.26 72.7545 584.26C70.7945 584.26 69.4145 582.8 69.4145 580.64V574.16H72.0145V580.24C72.0145 581.48 72.5745 582.08 73.6745 582.08C74.9945 582.08 75.6945 581.14 75.6945 579.84V574.16H78.2745V584ZM85.3745 580.26L85.3945 579.18C85.1345 579.44 84.6745 579.58 83.7145 579.76C82.2345 580.04 81.7545 580.46 81.7545 581.3C81.7545 582.04 82.1945 582.4 83.0145 582.4C84.3545 582.4 85.3545 581.42 85.3745 580.26ZM87.9945 584H85.5745C85.4945 583.76 85.4345 583.42 85.4145 583.12C84.7945 583.8 83.7545 584.26 82.4345 584.26C80.1945 584.26 79.1545 583.16 79.1545 581.56C79.1545 578.72 81.0545 578.4 83.6745 578.04C84.9745 577.86 85.3345 577.6 85.3345 576.92C85.3345 576.28 84.6945 575.9 83.6745 575.9C82.4945 575.9 82.0145 576.48 81.8945 577.36H79.4745C79.5145 575.32 80.6345 573.9 83.7945 573.9C86.9145 573.9 87.9945 575.3 87.9945 577.78V584ZM97.5611 577.14H95.0611C94.9211 576.18 94.4011 575.84 93.2211 575.84C92.2411 575.84 91.6811 576.08 91.6811 576.66C91.6811 577.24 92.2211 577.48 93.2811 577.78C94.4011 578.1 95.4611 578.32 96.2211 578.62C97.2611 579.04 97.8411 579.72 97.8411 581C97.8411 583.04 96.3411 584.26 93.5411 584.26C90.5211 584.26 88.8411 582.84 88.8011 580.84H91.4811C91.4811 581.76 92.2611 582.3 93.5211 582.3C94.4411 582.3 95.2611 582.02 95.2611 581.28C95.2611 580.58 94.5211 580.36 93.6811 580.16C92.0211 579.76 91.1011 579.48 90.4011 579.04C89.4811 578.46 89.1611 577.7 89.1611 576.82C89.1611 575.16 90.3011 573.9 93.3011 573.9C96.1411 573.9 97.4211 575.02 97.5611 577.14ZM109.639 580.44H112.259C111.979 582.72 110.119 584.26 107.739 584.26C105.059 584.26 103.219 582.48 103.219 578.96C103.219 575.44 105.059 573.9 107.819 573.9C110.379 573.9 112.119 575.36 112.279 577.68H109.659C109.519 576.66 108.779 576.06 107.799 576.06C106.699 576.06 105.799 576.76 105.799 578.9C105.799 581.04 106.699 582.08 107.719 582.08C108.739 582.08 109.539 581.5 109.639 580.44ZM117.868 582.08C119.448 582.08 120.248 581.08 120.248 579.08C120.248 577.08 119.448 576.1 117.868 576.1C116.288 576.1 115.488 577.08 115.488 579.08C115.488 581.08 116.288 582.08 117.868 582.08ZM117.868 584.26C114.688 584.26 112.808 582.14 112.808 579.08C112.808 575.96 114.748 573.9 117.868 573.9C120.948 573.9 122.868 575.94 122.868 579.08C122.868 582.2 120.928 584.26 117.868 584.26ZM132.729 584H130.109V578.04C130.109 576.52 129.669 576.1 128.429 576.1C127.069 576.1 126.409 576.86 126.409 578.36V584H123.809V574.16H126.289V575.6C126.889 574.5 127.889 573.9 129.469 573.9C131.349 573.9 132.729 575.04 132.729 577.18V584ZM142.288 577.14H139.788C139.648 576.18 139.128 575.84 137.948 575.84C136.968 575.84 136.408 576.08 136.408 576.66C136.408 577.24 136.948 577.48 138.008 577.78C139.128 578.1 140.188 578.32 140.948 578.62C141.988 579.04 142.568 579.72 142.568 581C142.568 583.04 141.068 584.26 138.268 584.26C135.248 584.26 133.568 582.84 133.528 580.84H136.208C136.208 581.76 136.988 582.3 138.248 582.3C139.168 582.3 139.988 582.02 139.988 581.28C139.988 580.58 139.248 580.36 138.408 580.16C136.748 579.76 135.828 579.48 135.128 579.04C134.208 578.46 133.888 577.7 133.888 576.82C133.888 575.16 135.028 573.9 138.028 573.9C140.868 573.9 142.148 575.02 142.288 577.14ZM152.161 584H149.701V582.62C149.021 583.74 148.001 584.26 146.641 584.26C144.681 584.26 143.301 582.8 143.301 580.64V574.16H145.901V580.24C145.901 581.48 146.461 582.08 147.561 582.08C148.881 582.08 149.581 581.14 149.581 579.84V574.16H152.161V584ZM155.901 584H153.301V570.56H155.901V584ZM162.573 580.08V577.52H164.993V580.32C164.993 582.4 163.793 584.26 161.013 584.26C158.133 584.26 156.993 582.42 156.993 580.3V571.5H159.553V574.16H164.993V576H159.553V580.04C159.553 581.28 159.993 582 161.053 582C162.093 582 162.573 581.3 162.573 580.08ZM172.015 580.26L172.035 579.18C171.775 579.44 171.315 579.58 170.355 579.76C168.875 580.04 168.395 580.46 168.395 581.3C168.395 582.04 168.835 582.4 169.655 582.4C170.995 582.4 171.995 581.42 172.015 580.26ZM174.635 584H172.215C172.135 583.76 172.075 583.42 172.055 583.12C171.435 583.8 170.395 584.26 169.075 584.26C166.835 584.26 165.795 583.16 165.795 581.56C165.795 578.72 167.695 578.4 170.315 578.04C171.615 577.86 171.975 577.6 171.975 576.92C171.975 576.28 171.335 575.9 170.315 575.9C169.135 575.9 168.655 576.48 168.535 577.36H166.115C166.155 575.32 167.275 573.9 170.435 573.9C173.555 573.9 174.635 575.3 174.635 577.78V584ZM184.202 577.14H181.702C181.562 576.18 181.042 575.84 179.862 575.84C178.882 575.84 178.322 576.08 178.322 576.66C178.322 577.24 178.862 577.48 179.922 577.78C181.042 578.1 182.102 578.32 182.862 578.62C183.902 579.04 184.482 579.72 184.482 581C184.482 583.04 182.982 584.26 180.182 584.26C177.162 584.26 175.482 582.84 175.442 580.84H178.122C178.122 581.76 178.902 582.3 180.162 582.3C181.082 582.3 181.902 582.02 181.902 581.28C181.902 580.58 181.162 580.36 180.322 580.16C178.662 579.76 177.742 579.48 177.042 579.04C176.122 578.46 175.802 577.7 175.802 576.82C175.802 575.16 176.942 573.9 179.942 573.9C182.782 573.9 184.062 575.02 184.202 577.14ZM204.12 584H201.58V578.04C201.58 576.86 200.96 576.02 200.04 576.02C199.08 576.02 198.38 576.92 198.38 578.12V584H195.78V578.08C195.78 576.5 195.36 576.1 194.22 576.1C193.18 576.1 192.64 576.74 192.64 578.02V584H190.04V574.16H192.48V575.6C193.14 574.3 194.06 573.9 195.36 573.9C196.7 573.9 197.34 574.32 198.1 575.46C198.64 574.38 199.52 573.9 200.76 573.9C202.74 573.9 204.12 575.34 204.12 577.18V584ZM207.578 578.12H211.598C211.558 576.66 210.598 575.96 209.578 575.96C208.538 575.96 207.678 576.76 207.578 578.12ZM214.278 579.76H207.498C207.578 581.24 208.418 582.2 209.698 582.2C210.538 582.2 211.278 581.78 211.458 581.1H214.138C213.538 583.12 211.918 584.26 209.818 584.26C206.538 584.26 204.898 582.46 204.898 578.9C204.898 575.86 206.638 573.9 209.658 573.9C212.678 573.9 214.278 575.86 214.278 579.76ZM212.778 571.04L208.318 572.92L207.698 571.82L211.838 569.4L212.778 571.04ZM219.836 582.14C221.076 582.14 222.036 580.98 222.036 579.32C222.036 577.18 221.296 576.12 219.856 576.12C218.336 576.12 217.616 577.14 217.616 579.16C217.616 580.92 218.536 582.14 219.836 582.14ZM224.496 584H221.996L221.976 582.8C221.356 583.8 220.436 584.26 219.236 584.26C216.756 584.26 214.976 582.3 214.976 578.98C214.976 576 216.476 573.9 219.016 573.9C220.236 573.9 221.196 574.4 221.936 575.44V570.56H224.496V584ZM228.305 584H225.705V574.16H228.305V584ZM228.305 572.98H225.705V570.56H228.305V572.98ZM235.733 580.44H238.353C238.073 582.72 236.213 584.26 233.833 584.26C231.153 584.26 229.313 582.48 229.313 578.96C229.313 575.44 231.153 573.9 233.913 573.9C236.473 573.9 238.213 575.36 238.373 577.68H235.753C235.613 576.66 234.873 576.06 233.893 576.06C232.793 576.06 231.893 576.76 231.893 578.9C231.893 581.04 232.793 582.08 233.813 582.08C234.833 582.08 235.633 581.5 235.733 580.44ZM245.082 580.26L245.102 579.18C244.842 579.44 244.382 579.58 243.422 579.76C241.942 580.04 241.462 580.46 241.462 581.3C241.462 582.04 241.902 582.4 242.722 582.4C244.062 582.4 245.062 581.42 245.082 580.26ZM247.702 584H245.282C245.202 583.76 245.142 583.42 245.122 583.12C244.502 583.8 243.462 584.26 242.142 584.26C239.902 584.26 238.862 583.16 238.862 581.56C238.862 578.72 240.762 578.4 243.382 578.04C244.682 577.86 245.042 577.6 245.042 576.92C245.042 576.28 244.402 575.9 243.382 575.9C242.202 575.9 241.722 576.48 241.602 577.36H239.182C239.222 575.32 240.342 573.9 243.502 573.9C246.622 573.9 247.702 575.3 247.702 577.78V584ZM257.268 577.14H254.768C254.628 576.18 254.108 575.84 252.928 575.84C251.948 575.84 251.388 576.08 251.388 576.66C251.388 577.24 251.928 577.48 252.988 577.78C254.108 578.1 255.168 578.32 255.928 578.62C256.968 579.04 257.548 579.72 257.548 581C257.548 583.04 256.048 584.26 253.248 584.26C250.228 584.26 248.548 582.84 248.508 580.84H251.188C251.188 581.76 251.968 582.3 253.228 582.3C254.148 582.3 254.968 582.02 254.968 581.28C254.968 580.58 254.228 580.36 253.388 580.16C251.728 579.76 250.808 579.48 250.108 579.04C249.188 578.46 248.868 577.7 248.868 576.82C248.868 575.16 250.008 573.9 253.008 573.9C255.848 573.9 257.128 575.02 257.268 577.14ZM272.026 584H269.406V578.04C269.406 576.52 268.966 576.1 267.726 576.1C266.366 576.1 265.706 576.86 265.706 578.36V584H263.106V574.16H265.586V575.6C266.186 574.5 267.186 573.9 268.766 573.9C270.646 573.9 272.026 575.04 272.026 577.18V584ZM278.005 582.08C279.585 582.08 280.385 581.08 280.385 579.08C280.385 577.08 279.585 576.1 278.005 576.1C276.425 576.1 275.625 577.08 275.625 579.08C275.625 581.08 276.425 582.08 278.005 582.08ZM278.005 584.26C274.825 584.26 272.945 582.14 272.945 579.08C272.945 575.96 274.885 573.9 278.005 573.9C281.085 573.9 283.005 575.94 283.005 579.08C283.005 582.2 281.065 584.26 278.005 584.26ZM301.59 584H298.99V574.9L296.51 584H293.75L291.29 574.94V584H288.71V570.72H292.79L295.19 580.46L297.59 570.72H301.59V584ZM308.636 580.26L308.656 579.18C308.396 579.44 307.936 579.58 306.976 579.76C305.496 580.04 305.016 580.46 305.016 581.3C305.016 582.04 305.456 582.4 306.276 582.4C307.616 582.4 308.616 581.42 308.636 580.26ZM311.256 584H308.836C308.756 583.76 308.696 583.42 308.676 583.12C308.056 583.8 307.016 584.26 305.696 584.26C303.456 584.26 302.416 583.16 302.416 581.56C302.416 578.72 304.316 578.4 306.936 578.04C308.236 577.86 308.596 577.6 308.596 576.92C308.596 576.28 307.956 575.9 306.936 575.9C305.756 575.9 305.276 576.48 305.156 577.36H302.736C302.776 575.32 303.896 573.9 307.056 573.9C310.176 573.9 311.256 575.3 311.256 577.78V584ZM321.323 584H318.703V578.04C318.703 576.52 318.263 576.1 317.023 576.1C315.663 576.1 315.003 576.86 315.003 578.36V584H312.403V574.16H314.883V575.6C315.483 574.5 316.483 573.9 318.063 573.9C319.943 573.9 321.323 575.04 321.323 577.18V584ZM325.101 581.74H327.401C329.821 581.74 330.861 580.22 330.861 577.22C330.861 574.22 329.821 573.02 327.161 573.02H325.101V581.74ZM327.961 584H322.401V570.72H327.541C331.141 570.72 333.701 573.18 333.701 577.22C333.701 581.26 331.401 584 327.961 584ZM340.316 580.26L340.336 579.18C340.076 579.44 339.616 579.58 338.656 579.76C337.176 580.04 336.696 580.46 336.696 581.3C336.696 582.04 337.136 582.4 337.956 582.4C339.296 582.4 340.296 581.42 340.316 580.26ZM342.936 584H340.516C340.436 583.76 340.376 583.42 340.356 583.12C339.736 583.8 338.696 584.26 337.376 584.26C335.136 584.26 334.096 583.16 334.096 581.56C334.096 578.72 335.996 578.4 338.616 578.04C339.916 577.86 340.276 577.6 340.276 576.92C340.276 576.28 339.636 575.9 338.616 575.9C337.436 575.9 336.956 576.48 336.836 577.36H334.416C334.456 575.32 335.576 573.9 338.736 573.9C341.856 573.9 342.936 575.3 342.936 577.78V584ZM346.743 584H344.143V574.16H346.743V584ZM346.743 572.98H344.143V570.56H346.743V572.98ZM350.53 584H347.93V570.56H350.53V584ZM357.882 584.3V582.7C357.522 583.58 356.442 584.1 355.222 584.1C353.162 584.1 351.622 582.7 351.622 580.54V574.16H354.222V580.16C354.222 581.38 354.782 582 355.882 582C357.062 582 357.882 581.22 357.882 580.16V574.16H360.482V584.26C360.482 587.04 358.482 588.66 355.962 588.66C353.082 588.66 351.622 587.08 351.622 584.54H354.042C354.042 585.7 354.722 586.42 356.082 586.42C357.022 586.42 357.882 585.6 357.882 584.3ZM76.9647 606.04C78.4847 606.04 79.2047 605.02 79.2047 603C79.2047 601.24 78.2847 600.02 76.9847 600.02C75.7447 600.02 74.7847 601.18 74.7847 602.84C74.7847 604.98 75.5247 606.04 76.9647 606.04ZM74.8847 612.66H72.3247V598.16H74.8247L74.8447 599.36C75.4647 598.36 76.3847 597.9 77.5847 597.9C80.0647 597.9 81.8447 599.86 81.8447 603.18C81.8447 606.16 80.3447 608.26 77.8047 608.26C76.5847 608.26 75.6247 607.76 74.8847 606.72V612.66ZM88.7534 604.26L88.7734 603.18C88.5134 603.44 88.0534 603.58 87.0934 603.76C85.6134 604.04 85.1334 604.46 85.1334 605.3C85.1334 606.04 85.5734 606.4 86.3934 606.4C87.7334 606.4 88.7334 605.42 88.7534 604.26ZM91.3734 608H88.9534C88.8734 607.76 88.8134 607.42 88.7934 607.12C88.1734 607.8 87.1334 608.26 85.8134 608.26C83.5734 608.26 82.5334 607.16 82.5334 605.56C82.5334 602.72 84.4334 602.4 87.0534 602.04C88.3534 601.86 88.7134 601.6 88.7134 600.92C88.7134 600.28 88.0734 599.9 87.0534 599.9C85.8734 599.9 85.3934 600.48 85.2734 601.36H82.8534C82.8934 599.32 84.0134 597.9 87.1734 597.9C90.2934 597.9 91.3734 599.3 91.3734 601.78V608ZM95.12 608H92.52V598.16H94.96V599.34C95.82 598.02 96.82 597.9 97.88 597.9H98.22V600.56C97.98 600.52 97.74 600.5 97.5 600.5C95.9 600.5 95.12 601.3 95.12 602.88V608ZM104.418 604.26L104.438 603.18C104.178 603.44 103.718 603.58 102.758 603.76C101.278 604.04 100.798 604.46 100.798 605.3C100.798 606.04 101.238 606.4 102.058 606.4C103.398 606.4 104.398 605.42 104.418 604.26ZM107.038 608H104.618C104.538 607.76 104.478 607.42 104.458 607.12C103.838 607.8 102.798 608.26 101.478 608.26C99.2375 608.26 98.1975 607.16 98.1975 605.56C98.1975 602.72 100.098 602.4 102.718 602.04C104.018 601.86 104.378 601.6 104.378 600.92C104.378 600.28 103.738 599.9 102.718 599.9C101.538 599.9 101.058 600.48 100.938 601.36H98.5175C98.5575 599.32 99.6775 597.9 102.838 597.9C105.958 597.9 107.038 599.3 107.038 601.78V608ZM124.748 608.54H127.188C127.188 611.08 125.568 612.66 123.448 612.66C121.308 612.66 119.728 610.98 119.728 608.56V606.78C118.988 607.78 118.048 608.26 116.848 608.26C114.308 608.26 112.808 606.16 112.808 603.18C112.808 599.86 114.588 597.9 117.068 597.9C118.268 597.9 119.188 598.36 119.808 599.36L119.828 598.16H122.328V608.58C122.328 609.92 122.788 610.36 123.608 610.36C124.368 610.36 124.748 609.84 124.748 608.54ZM117.688 606.04C119.128 606.04 119.868 604.98 119.868 602.84C119.868 601.18 118.908 600.02 117.668 600.02C116.368 600.02 115.448 601.24 115.448 603C115.448 605.02 116.168 606.04 117.688 606.04ZM132.122 608H129.662V606.62C128.982 607.74 127.962 608.26 126.602 608.26C124.642 608.26 123.262 606.8 123.262 604.64V598.16H125.862V604.24C125.862 605.48 126.422 606.08 127.522 606.08C128.842 606.08 129.542 605.14 129.542 603.84V598.16H132.122V608ZM135.722 602.12H139.742C139.702 600.66 138.742 599.96 137.722 599.96C136.682 599.96 135.822 600.76 135.722 602.12ZM142.422 603.76H135.642C135.722 605.24 136.562 606.2 137.842 606.2C138.682 606.2 139.422 605.78 139.602 605.1H142.282C141.682 607.12 140.062 608.26 137.962 608.26C134.682 608.26 133.042 606.46 133.042 602.9C133.042 599.86 134.782 597.9 137.802 597.9C140.822 597.9 142.422 599.86 142.422 603.76ZM156.565 601.14H154.065C153.925 600.18 153.405 599.84 152.225 599.84C151.245 599.84 150.685 600.08 150.685 600.66C150.685 601.24 151.225 601.48 152.285 601.78C153.405 602.1 154.465 602.32 155.225 602.62C156.265 603.04 156.845 603.72 156.845 605C156.845 607.04 155.345 608.26 152.545 608.26C149.525 608.26 147.845 606.84 147.805 604.84H150.485C150.485 605.76 151.265 606.3 152.525 606.3C153.445 606.3 154.265 606.02 154.265 605.28C154.265 604.58 153.525 604.36 152.685 604.16C151.025 603.76 150.105 603.48 149.405 603.04C148.485 602.46 148.165 601.7 148.165 600.82C148.165 599.16 149.305 597.9 152.305 597.9C155.145 597.9 156.425 599.02 156.565 601.14ZM160.039 602.12H164.059C164.019 600.66 163.059 599.96 162.039 599.96C160.999 599.96 160.139 600.76 160.039 602.12ZM166.739 603.76H159.959C160.039 605.24 160.879 606.2 162.159 606.2C162.999 606.2 163.739 605.78 163.919 605.1H166.599C165.999 607.12 164.379 608.26 162.279 608.26C158.999 608.26 157.359 606.46 157.359 602.9C157.359 599.86 159.099 597.9 162.119 597.9C165.139 597.9 166.739 599.86 166.739 603.76ZM167.637 608.56V598.16H170.257V608.66C170.257 611.04 168.577 612.66 166.377 612.66C163.677 612.66 162.417 611.08 162.417 608.54H164.857C164.857 609.66 165.217 610.36 166.237 610.36C167.277 610.36 167.637 609.68 167.637 608.56ZM170.257 596.98H167.637V594.56H170.257V596.98ZM177.503 604.26L177.523 603.18C177.263 603.44 176.803 603.58 175.843 603.76C174.363 604.04 173.883 604.46 173.883 605.3C173.883 606.04 174.323 606.4 175.143 606.4C176.483 606.4 177.483 605.42 177.503 604.26ZM180.123 608H177.703C177.623 607.76 177.563 607.42 177.543 607.12C176.923 607.8 175.883 608.26 174.563 608.26C172.323 608.26 171.283 607.16 171.283 605.56C171.283 602.72 173.183 602.4 175.803 602.04C177.103 601.86 177.463 601.6 177.463 600.92C177.463 600.28 176.823 599.9 175.803 599.9C174.623 599.9 174.143 600.48 174.023 601.36H171.603C171.643 599.32 172.763 597.9 175.923 597.9C179.043 597.9 180.123 599.3 180.123 601.78V608ZM188.694 608H186.094V594.56H188.694V608ZM192.246 602.12H196.266C196.226 600.66 195.266 599.96 194.246 599.96C193.206 599.96 192.346 600.76 192.246 602.12ZM198.946 603.76H192.166C192.246 605.24 193.086 606.2 194.366 606.2C195.206 606.2 195.946 605.78 196.126 605.1H198.806C198.206 607.12 196.586 608.26 194.486 608.26C191.206 608.26 189.566 606.46 189.566 602.9C189.566 599.86 191.306 597.9 194.326 597.9C197.346 597.9 198.946 599.86 198.946 603.76ZM213.924 608H211.384V602.04C211.384 600.86 210.764 600.02 209.844 600.02C208.884 600.02 208.184 600.92 208.184 602.12V608H205.584V602.08C205.584 600.5 205.164 600.1 204.024 600.1C202.984 600.1 202.444 600.74 202.444 602.02V608H199.844V598.16H202.284V599.6C202.944 598.3 203.864 597.9 205.164 597.9C206.504 597.9 207.144 598.32 207.904 599.46C208.444 598.38 209.324 597.9 210.564 597.9C212.544 597.9 213.924 599.34 213.924 601.18V608ZM219.582 606.14C220.882 606.14 221.802 604.92 221.802 603.16C221.802 601.14 221.082 600.12 219.562 600.12C218.122 600.12 217.382 601.18 217.382 603.32C217.382 604.98 218.342 606.14 219.582 606.14ZM217.422 608H214.922V594.56H217.482V599.44C218.222 598.4 219.182 597.9 220.402 597.9C222.942 597.9 224.442 600 224.442 602.98C224.442 606.3 222.662 608.26 220.182 608.26C218.982 608.26 218.062 607.8 217.442 606.8L217.422 608ZM228.011 608H225.411V598.16H227.851V599.34C228.711 598.02 229.711 597.9 230.771 597.9H231.111V600.56C230.871 600.52 230.631 600.5 230.391 600.5C228.791 600.5 228.011 601.3 228.011 602.88V608ZM237.308 604.26L237.328 603.18C237.068 603.44 236.608 603.58 235.648 603.76C234.168 604.04 233.688 604.46 233.688 605.3C233.688 606.04 234.128 606.4 234.948 606.4C236.288 606.4 237.288 605.42 237.308 604.26ZM239.928 608H237.508C237.428 607.76 237.368 607.42 237.348 607.12C236.728 607.8 235.688 608.26 234.368 608.26C232.128 608.26 231.088 607.16 231.088 605.56C231.088 602.72 232.988 602.4 235.608 602.04C236.908 601.86 237.268 601.6 237.268 600.92C237.268 600.28 236.628 599.9 235.608 599.9C234.428 599.9 233.948 600.48 233.828 601.36H231.408C231.448 599.32 232.568 597.9 235.728 597.9C238.848 597.9 239.928 599.3 239.928 601.78V608ZM245.735 606.14C246.975 606.14 247.935 604.98 247.935 603.32C247.935 601.18 247.195 600.12 245.755 600.12C244.235 600.12 243.515 601.14 243.515 603.16C243.515 604.92 244.435 606.14 245.735 606.14ZM250.395 608H247.895L247.875 606.8C247.255 607.8 246.335 608.26 245.135 608.26C242.655 608.26 240.875 606.3 240.875 602.98C240.875 600 242.375 597.9 244.915 597.9C246.135 597.9 247.095 598.4 247.835 599.44V594.56H250.395V608ZM256.383 606.08C257.963 606.08 258.763 605.08 258.763 603.08C258.763 601.08 257.963 600.1 256.383 600.1C254.803 600.1 254.003 601.08 254.003 603.08C254.003 605.08 254.803 606.08 256.383 606.08ZM256.383 608.26C253.203 608.26 251.323 606.14 251.323 603.08C251.323 599.96 253.263 597.9 256.383 597.9C259.463 597.9 261.383 599.94 261.383 603.08C261.383 606.2 259.443 608.26 256.383 608.26ZM271.809 606.14C273.049 606.14 274.009 604.98 274.009 603.32C274.009 601.18 273.269 600.12 271.829 600.12C270.309 600.12 269.589 601.14 269.589 603.16C269.589 604.92 270.509 606.14 271.809 606.14ZM276.469 608H273.969L273.949 606.8C273.329 607.8 272.409 608.26 271.209 608.26C268.729 608.26 266.949 606.3 266.949 602.98C266.949 600 268.449 597.9 270.989 597.9C272.209 597.9 273.169 598.4 273.909 599.44V594.56H276.469V608ZM282.458 606.08C284.038 606.08 284.838 605.08 284.838 603.08C284.838 601.08 284.038 600.1 282.458 600.1C280.878 600.1 280.078 601.08 280.078 603.08C280.078 605.08 280.878 606.08 282.458 606.08ZM282.458 608.26C279.278 608.26 277.398 606.14 277.398 603.08C277.398 599.96 279.338 597.9 282.458 597.9C285.538 597.9 287.458 599.94 287.458 603.08C287.458 606.2 285.518 608.26 282.458 608.26ZM301.643 601.14H299.143C299.003 600.18 298.483 599.84 297.303 599.84C296.323 599.84 295.763 600.08 295.763 600.66C295.763 601.24 296.303 601.48 297.363 601.78C298.483 602.1 299.543 602.32 300.303 602.62C301.343 603.04 301.923 603.72 301.923 605C301.923 607.04 300.423 608.26 297.623 608.26C294.603 608.26 292.923 606.84 292.883 604.84H295.563C295.563 605.76 296.343 606.3 297.603 606.3C298.523 606.3 299.343 606.02 299.343 605.28C299.343 604.58 298.603 604.36 297.763 604.16C296.103 603.76 295.183 603.48 294.483 603.04C293.563 602.46 293.243 601.7 293.243 600.82C293.243 599.16 294.383 597.9 297.383 597.9C300.223 597.9 301.503 599.02 301.643 601.14ZM305.117 602.12H309.137C309.097 600.66 308.137 599.96 307.117 599.96C306.077 599.96 305.217 600.76 305.117 602.12ZM311.817 603.76H305.037C305.117 605.24 305.957 606.2 307.237 606.2C308.077 606.2 308.817 605.78 308.997 605.1H311.677C311.077 607.12 309.457 608.26 307.357 608.26C304.077 608.26 302.437 606.46 302.437 602.9C302.437 599.86 304.177 597.9 307.197 597.9C310.217 597.9 311.817 599.86 311.817 603.76ZM321.575 608H319.115V606.62C318.435 607.74 317.415 608.26 316.055 608.26C314.095 608.26 312.715 606.8 312.715 604.64V598.16H315.315V604.24C315.315 605.48 315.875 606.08 316.975 606.08C318.295 606.08 318.995 605.14 318.995 603.84V598.16H321.575V608ZM29.9319 628.44H32.5519C32.2719 630.72 30.4119 632.26 28.0319 632.26C25.3519 632.26 23.5119 630.48 23.5119 626.96C23.5119 623.44 25.3519 621.9 28.1119 621.9C30.6719 621.9 32.4119 623.36 32.5719 625.68H29.9519C29.8119 624.66 29.0719 624.06 28.0919 624.06C26.9919 624.06 26.0919 624.76 26.0919 626.9C26.0919 629.04 26.9919 630.08 28.0119 630.08C29.0319 630.08 29.8319 629.5 29.9319 628.44ZM38.1608 630.08C39.7408 630.08 40.5408 629.08 40.5408 627.08C40.5408 625.08 39.7408 624.1 38.1608 624.1C36.5808 624.1 35.7808 625.08 35.7808 627.08C35.7808 629.08 36.5808 630.08 38.1608 630.08ZM38.1608 632.26C34.9808 632.26 33.1008 630.14 33.1008 627.08C33.1008 623.96 35.0408 621.9 38.1608 621.9C41.2408 621.9 43.1608 623.94 43.1608 627.08C43.1608 630.2 41.2208 632.26 38.1608 632.26ZM58.182 632H55.642V626.04C55.642 624.86 55.022 624.02 54.102 624.02C53.142 624.02 52.442 624.92 52.442 626.12V632H49.842V626.08C49.842 624.5 49.422 624.1 48.282 624.1C47.242 624.1 46.702 624.74 46.702 626.02V632H44.102V622.16H46.542V623.6C47.202 622.3 48.122 621.9 49.422 621.9C50.762 621.9 51.402 622.32 52.162 623.46C52.702 622.38 53.582 621.9 54.822 621.9C56.802 621.9 58.182 623.34 58.182 625.18V632ZM63.8202 630.04C65.3402 630.04 66.0602 629.02 66.0602 627C66.0602 625.24 65.1402 624.02 63.8402 624.02C62.6002 624.02 61.6402 625.18 61.6402 626.84C61.6402 628.98 62.3802 630.04 63.8202 630.04ZM61.7402 636.66H59.1802V622.16H61.6802L61.7002 623.36C62.3202 622.36 63.2402 621.9 64.4402 621.9C66.9202 621.9 68.7002 623.86 68.7002 627.18C68.7002 630.16 67.2002 632.26 64.6602 632.26C63.4402 632.26 62.4802 631.76 61.7402 630.72V636.66ZM72.2489 632H69.6489V622.16H72.0889V623.34C72.9489 622.02 73.9489 621.9 75.0089 621.9H75.3489V624.56C75.1089 624.52 74.8689 624.5 74.6289 624.5C73.0289 624.5 72.2489 625.3 72.2489 626.88V632ZM80.3092 630.08C81.8892 630.08 82.6892 629.08 82.6892 627.08C82.6892 625.08 81.8892 624.1 80.3092 624.1C78.7292 624.1 77.9292 625.08 77.9292 627.08C77.9292 629.08 78.7292 630.08 80.3092 630.08ZM80.3092 632.26C77.1292 632.26 75.2492 630.14 75.2492 627.08C75.2492 623.96 77.1892 621.9 80.3092 621.9C83.3892 621.9 85.3092 623.94 85.3092 627.08C85.3092 630.2 83.3692 632.26 80.3092 632.26ZM100.33 632H97.7905V626.04C97.7905 624.86 97.1705 624.02 96.2505 624.02C95.2905 624.02 94.5905 624.92 94.5905 626.12V632H91.9905V626.08C91.9905 624.5 91.5705 624.1 90.4305 624.1C89.3905 624.1 88.8505 624.74 88.8505 626.02V632H86.2505V622.16H88.6905V623.6C89.3505 622.3 90.2705 621.9 91.5705 621.9C92.9105 621.9 93.5505 622.32 94.3105 623.46C94.8505 622.38 95.7305 621.9 96.9705 621.9C98.9505 621.9 100.33 623.34 100.33 625.18V632ZM103.989 632H101.389V622.16H103.989V632ZM103.989 620.98H101.389V618.56H103.989V620.98ZM113.596 625.14H111.096C110.956 624.18 110.436 623.84 109.256 623.84C108.276 623.84 107.716 624.08 107.716 624.66C107.716 625.24 108.256 625.48 109.316 625.78C110.436 626.1 111.496 626.32 112.256 626.62C113.296 627.04 113.876 627.72 113.876 629C113.876 631.04 112.376 632.26 109.576 632.26C106.556 632.26 104.876 630.84 104.836 628.84H107.516C107.516 629.76 108.296 630.3 109.556 630.3C110.476 630.3 111.296 630.02 111.296 629.28C111.296 628.58 110.556 628.36 109.716 628.16C108.056 627.76 107.136 627.48 106.436 627.04C105.516 626.46 105.196 625.7 105.196 624.82C105.196 623.16 106.336 621.9 109.336 621.9C112.176 621.9 113.456 623.02 113.596 625.14ZM123.03 625.14H120.53C120.39 624.18 119.87 623.84 118.69 623.84C117.71 623.84 117.15 624.08 117.15 624.66C117.15 625.24 117.69 625.48 118.75 625.78C119.87 626.1 120.93 626.32 121.69 626.62C122.73 627.04 123.31 627.72 123.31 629C123.31 631.04 121.81 632.26 119.01 632.26C115.99 632.26 114.31 630.84 114.27 628.84H116.95C116.95 629.76 117.73 630.3 118.99 630.3C119.91 630.3 120.73 630.02 120.73 629.28C120.73 628.58 119.99 628.36 119.15 628.16C117.49 627.76 116.57 627.48 115.87 627.04C114.95 626.46 114.63 625.7 114.63 624.82C114.63 623.16 115.77 621.9 118.77 621.9C121.61 621.9 122.89 623.02 123.03 625.14ZM128.883 630.08C130.463 630.08 131.263 629.08 131.263 627.08C131.263 625.08 130.463 624.1 128.883 624.1C127.303 624.1 126.503 625.08 126.503 627.08C126.503 629.08 127.303 630.08 128.883 630.08ZM128.883 632.26C125.703 632.26 123.823 630.14 123.823 627.08C123.823 623.96 125.763 621.9 128.883 621.9C131.963 621.9 133.883 623.94 133.883 627.08C133.883 630.2 131.943 632.26 128.883 632.26ZM145.889 628.44H148.509C148.229 630.72 146.369 632.26 143.989 632.26C141.309 632.26 139.469 630.48 139.469 626.96C139.469 623.44 141.309 621.9 144.069 621.9C146.629 621.9 148.369 623.36 148.529 625.68H145.909C145.769 624.66 145.029 624.06 144.049 624.06C142.949 624.06 142.049 624.76 142.049 626.9C142.049 629.04 142.949 630.08 143.969 630.08C144.989 630.08 145.789 629.5 145.889 628.44ZM154.118 630.08C155.698 630.08 156.498 629.08 156.498 627.08C156.498 625.08 155.698 624.1 154.118 624.1C152.538 624.1 151.738 625.08 151.738 627.08C151.738 629.08 152.538 630.08 154.118 630.08ZM154.118 632.26C150.938 632.26 149.058 630.14 149.058 627.08C149.058 623.96 150.998 621.9 154.118 621.9C157.198 621.9 159.118 623.94 159.118 627.08C159.118 630.2 157.178 632.26 154.118 632.26ZM174.139 632H171.599V626.04C171.599 624.86 170.979 624.02 170.059 624.02C169.099 624.02 168.399 624.92 168.399 626.12V632H165.799V626.08C165.799 624.5 165.379 624.1 164.239 624.1C163.199 624.1 162.659 624.74 162.659 626.02V632H160.059V622.16H162.499V623.6C163.159 622.3 164.079 621.9 165.379 621.9C166.719 621.9 167.359 622.32 168.119 623.46C168.659 622.38 169.539 621.9 170.779 621.9C172.759 621.9 174.139 623.34 174.139 625.18V632ZM184.801 630.08C186.381 630.08 187.181 629.08 187.181 627.08C187.181 625.08 186.381 624.1 184.801 624.1C183.221 624.1 182.421 625.08 182.421 627.08C182.421 629.08 183.221 630.08 184.801 630.08ZM184.801 632.26C181.621 632.26 179.741 630.14 179.741 627.08C179.741 623.96 181.681 621.9 184.801 621.9C187.881 621.9 189.801 623.94 189.801 627.08C189.801 630.2 187.861 632.26 184.801 632.26ZM200.207 630.04C201.727 630.04 202.447 629.02 202.447 627C202.447 625.24 201.527 624.02 200.227 624.02C198.987 624.02 198.027 625.18 198.027 626.84C198.027 628.98 198.767 630.04 200.207 630.04ZM198.127 636.66H195.567V622.16H198.067L198.087 623.36C198.707 622.36 199.627 621.9 200.827 621.9C203.307 621.9 205.087 623.86 205.087 627.18C205.087 630.16 203.587 632.26 201.047 632.26C199.827 632.26 198.867 631.76 198.127 630.72V636.66ZM208.636 632H206.036V622.16H208.476V623.34C209.336 622.02 210.336 621.9 211.396 621.9H211.736V624.56C211.496 624.52 211.256 624.5 211.016 624.5C209.416 624.5 208.636 625.3 208.636 626.88V632ZM216.696 630.08C218.276 630.08 219.076 629.08 219.076 627.08C219.076 625.08 218.276 624.1 216.696 624.1C215.116 624.1 214.316 625.08 214.316 627.08C214.316 629.08 215.116 630.08 216.696 630.08ZM216.696 632.26C213.516 632.26 211.636 630.14 211.636 627.08C211.636 623.96 213.576 621.9 216.696 621.9C219.776 621.9 221.696 623.94 221.696 627.08C221.696 630.2 219.756 632.26 216.696 632.26ZM225.436 632H222.876V624H221.416V622.16H222.876C222.876 619.76 224.256 618.56 227.056 618.56V620.66C225.736 620.66 225.436 621.02 225.436 622.16H227.116V624H225.436V632ZM230.414 632H227.814V622.16H230.414V632ZM230.414 620.98H227.814V618.56H230.414V620.98ZM240.022 625.14H237.522C237.382 624.18 236.862 623.84 235.682 623.84C234.702 623.84 234.142 624.08 234.142 624.66C234.142 625.24 234.682 625.48 235.742 625.78C236.862 626.1 237.922 626.32 238.682 626.62C239.722 627.04 240.302 627.72 240.302 629C240.302 631.04 238.802 632.26 236.002 632.26C232.982 632.26 231.302 630.84 231.262 628.84H233.942C233.942 629.76 234.722 630.3 235.982 630.3C236.902 630.3 237.722 630.02 237.722 629.28C237.722 628.58 236.982 628.36 236.142 628.16C234.482 627.76 233.562 627.48 232.862 627.04C231.942 626.46 231.622 625.7 231.622 624.82C231.622 623.16 232.762 621.9 235.762 621.9C238.602 621.9 239.882 623.02 240.022 625.14ZM249.456 625.14H246.956C246.816 624.18 246.296 623.84 245.116 623.84C244.136 623.84 243.576 624.08 243.576 624.66C243.576 625.24 244.116 625.48 245.176 625.78C246.296 626.1 247.356 626.32 248.116 626.62C249.156 627.04 249.736 627.72 249.736 629C249.736 631.04 248.236 632.26 245.436 632.26C242.416 632.26 240.736 630.84 240.696 628.84H243.376C243.376 629.76 244.156 630.3 245.416 630.3C246.336 630.3 247.156 630.02 247.156 629.28C247.156 628.58 246.416 628.36 245.576 628.16C243.916 627.76 242.996 627.48 242.296 627.04C241.376 626.46 241.056 625.7 241.056 624.82C241.056 623.16 242.196 621.9 245.196 621.9C248.036 621.9 249.316 623.02 249.456 625.14ZM253.129 632H250.529V622.16H253.129V632ZM253.129 620.98H250.529V618.56H253.129V620.98ZM259.157 630.08C260.737 630.08 261.537 629.08 261.537 627.08C261.537 625.08 260.737 624.1 259.157 624.1C257.577 624.1 256.777 625.08 256.777 627.08C256.777 629.08 257.577 630.08 259.157 630.08ZM259.157 632.26C255.977 632.26 254.097 630.14 254.097 627.08C254.097 623.96 256.037 621.9 259.157 621.9C262.237 621.9 264.157 623.94 264.157 627.08C264.157 630.2 262.217 632.26 259.157 632.26ZM274.018 632H271.398V626.04C271.398 624.52 270.958 624.1 269.718 624.1C268.358 624.1 267.698 624.86 267.698 626.36V632H265.098V622.16H267.578V623.6C268.178 622.5 269.178 621.9 270.758 621.9C272.638 621.9 274.018 623.04 274.018 625.18V632ZM281.117 628.26L281.137 627.18C280.877 627.44 280.417 627.58 279.457 627.76C277.977 628.04 277.497 628.46 277.497 629.3C277.497 630.04 277.937 630.4 278.757 630.4C280.097 630.4 281.097 629.42 281.117 628.26ZM283.737 632H281.317C281.237 631.76 281.177 631.42 281.157 631.12C280.537 631.8 279.497 632.26 278.177 632.26C275.937 632.26 274.897 631.16 274.897 629.56C274.897 626.72 276.797 626.4 279.417 626.04C280.717 625.86 281.077 625.6 281.077 624.92C281.077 624.28 280.437 623.9 279.417 623.9C278.237 623.9 277.757 624.48 277.637 625.36H275.217C275.257 623.32 276.377 621.9 279.537 621.9C282.657 621.9 283.737 623.3 283.737 625.78V632ZM287.483 632H284.883V618.56H287.483V632ZM298.059 630.14C299.299 630.14 300.259 628.98 300.259 627.32C300.259 625.18 299.519 624.12 298.079 624.12C296.559 624.12 295.839 625.14 295.839 627.16C295.839 628.92 296.759 630.14 298.059 630.14ZM302.719 632H300.219L300.199 630.8C299.579 631.8 298.659 632.26 297.459 632.26C294.979 632.26 293.199 630.3 293.199 626.98C293.199 624 294.699 621.9 297.239 621.9C298.459 621.9 299.419 622.4 300.159 623.44V618.56H302.719V632ZM309.828 628.26L309.848 627.18C309.588 627.44 309.128 627.58 308.168 627.76C306.688 628.04 306.208 628.46 306.208 629.3C306.208 630.04 306.648 630.4 307.468 630.4C308.808 630.4 309.808 629.42 309.828 628.26ZM312.448 632H310.028C309.948 631.76 309.888 631.42 309.868 631.12C309.248 631.8 308.208 632.26 306.888 632.26C304.648 632.26 303.608 631.16 303.608 629.56C303.608 626.72 305.508 626.4 308.128 626.04C309.428 625.86 309.788 625.6 309.788 624.92C309.788 624.28 309.148 623.9 308.128 623.9C306.948 623.9 306.468 624.48 306.348 625.36H303.928C303.968 623.32 305.088 621.9 308.248 621.9C311.368 621.9 312.448 623.3 312.448 625.78V632ZM326.838 625.14H324.338C324.198 624.18 323.678 623.84 322.498 623.84C321.518 623.84 320.958 624.08 320.958 624.66C320.958 625.24 321.498 625.48 322.558 625.78C323.678 626.1 324.738 626.32 325.498 626.62C326.538 627.04 327.118 627.72 327.118 629C327.118 631.04 325.618 632.26 322.818 632.26C319.798 632.26 318.118 630.84 318.078 628.84H320.758C320.758 629.76 321.538 630.3 322.798 630.3C323.718 630.3 324.538 630.02 324.538 629.28C324.538 628.58 323.798 628.36 322.958 628.16C321.298 627.76 320.378 627.48 319.678 627.04C318.758 626.46 318.438 625.7 318.438 624.82C318.438 623.16 319.578 621.9 322.578 621.9C325.418 621.9 326.698 623.02 326.838 625.14ZM333.812 628.26L333.832 627.18C333.572 627.44 333.112 627.58 332.152 627.76C330.672 628.04 330.192 628.46 330.192 629.3C330.192 630.04 330.632 630.4 331.452 630.4C332.792 630.4 333.792 629.42 333.812 628.26ZM336.432 632H334.012C333.932 631.76 333.872 631.42 333.852 631.12C333.232 631.8 332.192 632.26 330.872 632.26C328.632 632.26 327.592 631.16 327.592 629.56C327.592 626.72 329.492 626.4 332.112 626.04C333.412 625.86 333.772 625.6 333.772 624.92C333.772 624.28 333.132 623.9 332.112 623.9C330.932 623.9 330.452 624.48 330.332 625.36H327.912C327.952 623.32 329.072 621.9 332.232 621.9C335.352 621.9 336.432 623.3 336.432 625.78V632ZM346.439 632H343.979V630.62C343.299 631.74 342.279 632.26 340.919 632.26C338.959 632.26 337.579 630.8 337.579 628.64V622.16H340.179V628.24C340.179 629.48 340.739 630.08 341.839 630.08C343.159 630.08 343.859 629.14 343.859 627.84V622.16H346.439V632ZM345.219 619.04L340.759 620.92L340.139 619.82L344.279 617.4L345.219 619.04ZM352.239 630.14C353.479 630.14 354.439 628.98 354.439 627.32C354.439 625.18 353.699 624.12 352.259 624.12C350.739 624.12 350.019 625.14 350.019 627.16C350.019 628.92 350.939 630.14 352.239 630.14ZM356.899 632H354.399L354.379 630.8C353.759 631.8 352.839 632.26 351.639 632.26C349.159 632.26 347.379 630.3 347.379 626.98C347.379 624 348.879 621.9 351.419 621.9C352.639 621.9 353.599 622.4 354.339 623.44V618.56H356.899V632ZM360.507 626.12H364.527C364.487 624.66 363.527 623.96 362.507 623.96C361.467 623.96 360.607 624.76 360.507 626.12ZM367.207 627.76H360.427C360.507 629.24 361.347 630.2 362.627 630.2C363.467 630.2 364.207 629.78 364.387 629.1H367.067C366.467 631.12 364.847 632.26 362.747 632.26C359.467 632.26 357.827 630.46 357.827 626.9C357.827 623.86 359.567 621.9 362.587 621.9C365.607 621.9 367.207 623.86 367.207 627.76ZM370.338 632H367.558V629.3H370.338V632Z" fill="#F2F0EF"/>
<path d="M172.25 278C165.951 278 159.91 280.502 155.456 284.956C151.002 289.41 148.5 295.451 148.5 301.75V325.5H124.75C118.451 325.5 112.41 328.002 107.956 332.456C103.502 336.91 101 342.951 101 349.25V396.75C101 403.049 103.502 409.09 107.956 413.544C112.41 417.998 118.451 420.5 124.75 420.5H148.5V444.25C148.5 450.549 151.002 456.59 155.456 461.044C159.91 465.498 165.951 468 172.25 468H219.75C226.049 468 232.09 465.498 236.544 461.044C240.998 456.59 243.5 450.549 243.5 444.25V420.5H267.25C273.549 420.5 279.59 417.998 284.044 413.544C288.498 409.09 291 403.049 291 396.75V349.25C291 342.951 288.498 336.91 284.044 332.456C279.59 328.002 273.549 325.5 267.25 325.5H243.5V301.75C243.5 295.451 240.998 289.41 236.544 284.956C232.09 280.502 226.049 278 219.75 278H172.25Z" fill="#0071BC"/>
</g>
<defs>
<clipPath id="clip0_51_454">
<rect width="390" height="852" fill="white"/>
</clipPath>
</defs>
</svg>
