<svg width="390" height="852" viewBox="0 0 390 852" fill="none" xmlns="http://www.w3.org/2000/svg">
<g clip-path="url(#clip0_51_501)">
<rect width="390" height="852" fill="#191919"/>
<path fill-rule="evenodd" clip-rule="evenodd" d="M268.778 156.333C268.778 137.945 276.176 120.31 289.345 107.307C302.515 94.3047 320.376 87 339 87C357.624 87 375.485 94.3047 388.655 107.307C401.824 120.31 409.222 137.945 409.222 156.333C409.222 174.722 401.824 192.357 388.655 205.359C375.485 218.362 357.624 225.667 339 225.667C320.376 225.667 302.515 218.362 289.345 205.359C276.176 192.357 268.778 174.722 268.778 156.333ZM268.778 260.333C245.498 260.333 223.171 269.464 206.71 285.717C190.248 301.971 181 324.015 181 347C181 360.791 186.549 374.018 196.426 383.77C206.303 393.521 219.699 399 233.667 399H444.333C458.301 399 471.697 393.521 481.574 383.77C491.451 374.018 497 360.791 497 347C497 324.015 487.752 301.971 471.29 285.717C454.829 269.464 432.502 260.333 409.222 260.333H268.778Z" fill="#F2F0EF" fill-opacity="0.15"/>
<path fill-rule="evenodd" clip-rule="evenodd" d="M-1.22222 446.333C-1.22222 427.945 6.17616 410.31 19.3454 397.307C32.5146 384.305 50.3759 377 69 377C87.6241 377 105.485 384.305 118.655 397.307C131.824 410.31 139.222 427.945 139.222 446.333C139.222 464.722 131.824 482.357 118.655 495.359C105.485 508.362 87.6241 515.667 69 515.667C50.3759 515.667 32.5146 508.362 19.3454 495.359C6.17616 482.357 -1.22222 464.722 -1.22222 446.333ZM-1.22222 550.333C-24.5023 550.333 -46.829 559.464 -63.2905 575.717C-79.752 591.971 -89 614.015 -89 637C-89 650.791 -83.4512 664.018 -73.5743 673.77C-63.6974 683.521 -50.3014 689 -36.3333 689H174.333C188.301 689 201.697 683.521 211.574 673.77C221.451 664.018 227 650.791 227 637C227 614.015 217.752 591.971 201.29 575.717C184.829 559.464 162.502 550.333 139.222 550.333H-1.22222Z" fill="#F2F0EF" fill-opacity="0.15"/>
<path d="M107.632 540.024C102.811 540.024 98.5653 539.043 94.896 537.08C91.2693 535.117 88.4533 532.365 86.448 528.824C84.4853 525.283 83.504 521.208 83.504 516.6C83.504 511.992 84.5067 507.917 86.512 504.376C88.56 500.792 91.3973 498.04 95.024 496.12C98.6507 494.157 102.789 493.176 107.44 493.176C114.053 493.176 119.728 495.501 124.464 500.152L118 506.616C115.141 503.885 111.707 502.52 107.696 502.52C105.008 502.52 102.619 503.117 100.528 504.312C98.48 505.464 96.88 507.107 95.728 509.24C94.6187 511.373 94.064 513.827 94.064 516.6C94.064 519.373 94.6187 521.827 95.728 523.96C96.88 526.093 98.48 527.757 100.528 528.952C102.619 530.104 105.008 530.68 107.696 530.68C109.829 530.68 111.877 530.296 113.84 529.528C115.803 528.76 117.509 527.651 118.96 526.2L125.104 533.048C120.283 537.699 114.459 540.024 107.632 540.024ZM140.235 539.704C136.737 539.704 133.665 539.021 131.019 537.656C128.417 536.248 126.411 534.307 125.003 531.832C123.595 529.357 122.891 526.477 122.891 523.192C122.891 519.907 123.595 517.027 125.003 514.552C126.411 512.077 128.417 510.157 131.019 508.792C133.665 507.384 136.737 506.68 140.235 506.68C143.734 506.68 146.806 507.384 149.451 508.792C152.097 510.157 154.123 512.077 155.531 514.552C156.939 517.027 157.643 519.907 157.643 523.192C157.643 526.477 156.939 529.357 155.531 531.832C154.123 534.307 152.097 536.248 149.451 537.656C146.806 539.021 143.734 539.704 140.235 539.704ZM140.235 531.192C142.454 531.192 144.246 530.445 145.611 528.952C146.977 527.459 147.659 525.539 147.659 523.192C147.659 520.845 146.977 518.925 145.611 517.432C144.246 515.939 142.454 515.192 140.235 515.192C138.059 515.192 136.289 515.939 134.923 517.432C133.558 518.925 132.875 520.845 132.875 523.192C132.875 525.539 133.558 527.459 134.923 528.952C136.289 530.445 138.059 531.192 140.235 531.192ZM197.481 506.68C201.492 506.68 204.65 507.853 206.953 510.2C209.257 512.547 210.41 515.768 210.41 519.864V539H200.361V521.144C200.361 519.267 199.914 517.816 199.018 516.792C198.164 515.725 196.948 515.192 195.369 515.192C193.62 515.192 192.233 515.789 191.209 516.984C190.185 518.179 189.674 519.757 189.674 521.72V539H179.689V521.144C179.689 519.267 179.263 517.816 178.409 516.792C177.556 515.725 176.34 515.192 174.761 515.192C173.012 515.192 171.604 515.789 170.537 516.984C169.513 518.179 169.001 519.757 169.001 521.72V539H158.953V507.384H167.657L168.233 510.904C169.343 509.539 170.665 508.493 172.201 507.768C173.78 507.043 175.465 506.68 177.257 506.68C179.305 506.68 181.14 507.128 182.761 508.024C184.383 508.877 185.663 510.072 186.601 511.608C189.161 508.323 192.788 506.68 197.481 506.68ZM228.33 506.68C231.786 506.68 234.773 507.341 237.29 508.664C239.808 509.944 241.728 511.779 243.05 514.168C244.416 516.515 245.098 519.267 245.098 522.424C245.098 523.448 244.992 524.707 244.778 526.2H221.546C221.845 527.821 222.72 529.144 224.17 530.168C225.621 531.149 227.477 531.64 229.738 531.64C231.317 531.64 232.853 531.405 234.346 530.936C235.84 530.467 237.12 529.805 238.186 528.952L243.434 534.584C241.642 536.248 239.509 537.528 237.034 538.424C234.602 539.32 232 539.768 229.226 539.768C225.557 539.768 222.378 539.107 219.69 537.784C217.002 536.419 214.933 534.499 213.482 532.024C212.032 529.549 211.306 526.627 211.306 523.256C211.306 520.013 212.01 517.133 213.418 514.616C214.869 512.099 216.874 510.157 219.434 508.792C221.994 507.384 224.96 506.68 228.33 506.68ZM228.65 514.616C226.645 514.616 225.002 515.128 223.722 516.152C222.485 517.176 221.781 518.605 221.61 520.44H235.562C235.434 518.605 234.752 517.176 233.514 516.152C232.32 515.128 230.698 514.616 228.65 514.616ZM261.861 539.704C258.32 539.704 255.226 539.043 252.581 537.72C249.978 536.355 247.952 534.435 246.501 531.96C245.093 529.485 244.389 526.584 244.389 523.256C244.389 519.971 245.114 517.091 246.565 514.616C248.016 512.099 250.042 510.157 252.645 508.792C255.248 507.384 258.256 506.68 261.669 506.68C264.016 506.68 266.256 507.107 268.389 507.96C270.522 508.771 272.421 509.987 274.085 511.608L268.517 517.688C266.725 516.024 264.613 515.192 262.181 515.192C259.877 515.192 258 515.939 256.549 517.432C255.098 518.883 254.373 520.803 254.373 523.192C254.373 525.581 255.077 527.523 256.485 529.016C257.936 530.467 259.834 531.192 262.181 531.192C264.784 531.192 267.002 530.275 268.837 528.44L274.533 534.456C270.992 537.955 266.768 539.704 261.861 539.704ZM289.246 506.68C292.702 506.68 295.688 507.341 298.206 508.664C300.723 509.944 302.643 511.779 303.966 514.168C305.331 516.515 306.014 519.267 306.014 522.424C306.014 523.448 305.907 524.707 305.694 526.2H282.462C282.76 527.821 283.635 529.144 285.086 530.168C286.536 531.149 288.392 531.64 290.654 531.64C292.232 531.64 293.768 531.405 295.262 530.936C296.755 530.467 298.035 529.805 299.102 528.952L304.35 534.584C302.558 536.248 300.424 537.528 297.95 538.424C295.518 539.32 292.915 539.768 290.142 539.768C286.472 539.768 283.294 539.107 280.606 537.784C277.918 536.419 275.848 534.499 274.398 532.024C272.947 529.549 272.222 526.627 272.222 523.256C272.222 520.013 272.926 517.133 274.334 514.616C275.784 512.099 277.79 510.157 280.35 508.792C282.91 507.384 285.875 506.68 289.246 506.68ZM289.566 514.616C287.56 514.616 285.918 515.128 284.638 516.152C283.4 517.176 282.696 518.605 282.526 520.44H296.478C296.35 518.605 295.667 517.176 294.43 516.152C293.235 515.128 291.614 514.616 289.566 514.616Z" fill="#F2F0EF"/>
<path d="M43.1476 579.44H45.9276C45.3676 582.46 43.2876 584.46 40.2076 584.46C36.7276 584.46 34.0676 582.08 34.0676 577.52C34.0676 573.02 36.4476 570.28 40.2476 570.28C43.5676 570.28 45.6676 572.4 45.9276 575.08H43.1476C42.7676 573.58 41.5876 572.68 40.2676 572.68C37.9676 572.68 36.8876 574.46 36.8876 577.36C36.8876 580.3 37.9676 582.04 40.1276 582.04C41.7676 582.04 42.7676 581.1 43.1476 579.44ZM49.1532 584H46.5532V574.16H48.9932V575.34C49.8532 574.02 50.8532 573.9 51.9132 573.9H52.2532V576.56C52.0132 576.52 51.7732 576.5 51.5332 576.5C49.9332 576.5 49.1532 577.3 49.1532 578.88V584ZM55.639 584H53.039V574.16H55.639V584ZM55.639 572.98H53.039V570.56H55.639V572.98ZM62.7866 580.26L62.8066 579.18C62.5466 579.44 62.0866 579.58 61.1266 579.76C59.6466 580.04 59.1666 580.46 59.1666 581.3C59.1666 582.04 59.6066 582.4 60.4266 582.4C61.7666 582.4 62.7666 581.42 62.7866 580.26ZM65.4066 584H62.9866C62.9066 583.76 62.8466 583.42 62.8266 583.12C62.2066 583.8 61.1666 584.26 59.8466 584.26C57.6066 584.26 56.5666 583.16 56.5666 581.56C56.5666 578.72 58.4666 578.4 61.0866 578.04C62.3866 577.86 62.7466 577.6 62.7466 576.92C62.7466 576.28 62.1066 575.9 61.0866 575.9C59.9066 575.9 59.4266 576.48 59.3066 577.36H56.8866C56.9266 575.32 58.0466 573.9 61.2066 573.9C64.3266 573.9 65.4066 575.3 65.4066 577.78V584ZM75.4732 584H72.8532V578.04C72.8532 576.52 72.4132 576.1 71.1732 576.1C69.8132 576.1 69.1532 576.86 69.1532 578.36V584H66.5532V574.16H69.0332V575.6C69.6332 574.5 70.6332 573.9 72.2132 573.9C74.0932 573.9 75.4732 575.04 75.4732 577.18V584ZM81.2718 582.14C82.5118 582.14 83.4718 580.98 83.4718 579.32C83.4718 577.18 82.7318 576.12 81.2918 576.12C79.7718 576.12 79.0518 577.14 79.0518 579.16C79.0518 580.92 79.9718 582.14 81.2718 582.14ZM85.9318 584H83.4318L83.4118 582.8C82.7918 583.8 81.8718 584.26 80.6718 584.26C78.1918 584.26 76.4118 582.3 76.4118 578.98C76.4118 576 77.9118 573.9 80.4518 573.9C81.6718 573.9 82.6318 574.4 83.3718 575.44V570.56H85.9318V584ZM91.9205 582.08C93.5005 582.08 94.3005 581.08 94.3005 579.08C94.3005 577.08 93.5005 576.1 91.9205 576.1C90.3405 576.1 89.5405 577.08 89.5405 579.08C89.5405 581.08 90.3405 582.08 91.9205 582.08ZM91.9205 584.26C88.7405 584.26 86.8605 582.14 86.8605 579.08C86.8605 575.96 88.8005 573.9 91.9205 573.9C95.0005 573.9 96.9205 575.94 96.9205 579.08C96.9205 582.2 94.9805 584.26 91.9205 584.26ZM108.646 580.26L108.666 579.18C108.406 579.44 107.946 579.58 106.986 579.76C105.506 580.04 105.026 580.46 105.026 581.3C105.026 582.04 105.466 582.4 106.286 582.4C107.626 582.4 108.626 581.42 108.646 580.26ZM111.266 584H108.846C108.766 583.76 108.706 583.42 108.686 583.12C108.066 583.8 107.026 584.26 105.706 584.26C103.466 584.26 102.426 583.16 102.426 581.56C102.426 578.72 104.326 578.4 106.946 578.04C108.246 577.86 108.606 577.6 108.606 576.92C108.606 576.28 107.966 575.9 106.946 575.9C105.766 575.9 105.286 576.48 105.166 577.36H102.746C102.786 575.32 103.906 573.9 107.066 573.9C110.186 573.9 111.266 575.3 111.266 577.78V584ZM125.657 577.14H123.157C123.017 576.18 122.497 575.84 121.317 575.84C120.337 575.84 119.777 576.08 119.777 576.66C119.777 577.24 120.317 577.48 121.377 577.78C122.497 578.1 123.557 578.32 124.317 578.62C125.357 579.04 125.937 579.72 125.937 581C125.937 583.04 124.437 584.26 121.637 584.26C118.617 584.26 116.937 582.84 116.897 580.84H119.577C119.577 581.76 120.357 582.3 121.617 582.3C122.537 582.3 123.357 582.02 123.357 581.28C123.357 580.58 122.617 580.36 121.777 580.16C120.117 579.76 119.197 579.48 118.497 579.04C117.577 578.46 117.257 577.7 117.257 576.82C117.257 575.16 118.397 573.9 121.397 573.9C124.237 573.9 125.517 575.02 125.657 577.14ZM135.53 584H133.07V582.62C132.39 583.74 131.37 584.26 130.01 584.26C128.05 584.26 126.67 582.8 126.67 580.64V574.16H129.27V580.24C129.27 581.48 129.83 582.08 130.93 582.08C132.25 582.08 132.95 581.14 132.95 579.84V574.16H135.53V584ZM142.63 580.26L142.65 579.18C142.39 579.44 141.93 579.58 140.97 579.76C139.49 580.04 139.01 580.46 139.01 581.3C139.01 582.04 139.45 582.4 140.27 582.4C141.61 582.4 142.61 581.42 142.63 580.26ZM145.25 584H142.83C142.75 583.76 142.69 583.42 142.67 583.12C142.05 583.8 141.01 584.26 139.69 584.26C137.45 584.26 136.41 583.16 136.41 581.56C136.41 578.72 138.31 578.4 140.93 578.04C142.23 577.86 142.59 577.6 142.59 576.92C142.59 576.28 141.95 575.9 140.93 575.9C139.75 575.9 139.27 576.48 139.15 577.36H136.73C136.77 575.32 137.89 573.9 141.05 573.9C144.17 573.9 145.25 575.3 145.25 577.78V584ZM157.461 580.44H160.081C159.801 582.72 157.941 584.26 155.561 584.26C152.881 584.26 151.041 582.48 151.041 578.96C151.041 575.44 152.881 573.9 155.641 573.9C158.201 573.9 159.941 575.36 160.101 577.68H157.481C157.341 576.66 156.601 576.06 155.621 576.06C154.521 576.06 153.621 576.76 153.621 578.9C153.621 581.04 154.521 582.08 155.541 582.08C156.561 582.08 157.361 581.5 157.461 580.44ZM165.69 582.08C167.27 582.08 168.07 581.08 168.07 579.08C168.07 577.08 167.27 576.1 165.69 576.1C164.11 576.1 163.31 577.08 163.31 579.08C163.31 581.08 164.11 582.08 165.69 582.08ZM165.69 584.26C162.51 584.26 160.63 582.14 160.63 579.08C160.63 575.96 162.57 573.9 165.69 573.9C168.77 573.9 170.69 575.94 170.69 579.08C170.69 582.2 168.75 584.26 165.69 584.26ZM180.551 584H177.931V578.04C177.931 576.52 177.491 576.1 176.251 576.1C174.891 576.1 174.231 576.86 174.231 578.36V584H171.631V574.16H174.111V575.6C174.711 574.5 175.711 573.9 177.291 573.9C179.171 573.9 180.551 575.04 180.551 577.18V584ZM187.27 580.08V577.52H189.69V580.32C189.69 582.4 188.49 584.26 185.71 584.26C182.83 584.26 181.69 582.42 181.69 580.3V571.5H184.25V574.16H189.69V576H184.25V580.04C184.25 581.28 184.69 582 185.75 582C186.79 582 187.27 581.3 187.27 580.08ZM196.712 580.26L196.732 579.18C196.472 579.44 196.012 579.58 195.052 579.76C193.572 580.04 193.092 580.46 193.092 581.3C193.092 582.04 193.532 582.4 194.352 582.4C195.692 582.4 196.692 581.42 196.712 580.26ZM199.332 584H196.912C196.832 583.76 196.772 583.42 196.752 583.12C196.132 583.8 195.092 584.26 193.772 584.26C191.532 584.26 190.492 583.16 190.492 581.56C190.492 578.72 192.392 578.4 195.012 578.04C196.312 577.86 196.672 577.6 196.672 576.92C196.672 576.28 196.032 575.9 195.012 575.9C193.832 575.9 193.352 576.48 193.232 577.36H190.812C190.852 575.32 191.972 573.9 195.132 573.9C198.252 573.9 199.332 575.3 199.332 577.78V584ZM209.943 582.04C211.463 582.04 212.183 581.02 212.183 579C212.183 577.24 211.263 576.02 209.963 576.02C208.723 576.02 207.763 577.18 207.763 578.84C207.763 580.98 208.503 582.04 209.943 582.04ZM207.863 588.66H205.303V574.16H207.803L207.823 575.36C208.443 574.36 209.363 573.9 210.563 573.9C213.043 573.9 214.823 575.86 214.823 579.18C214.823 582.16 213.323 584.26 210.783 584.26C209.563 584.26 208.603 583.76 207.863 582.72V588.66ZM221.732 580.26L221.752 579.18C221.492 579.44 221.032 579.58 220.072 579.76C218.592 580.04 218.112 580.46 218.112 581.3C218.112 582.04 218.552 582.4 219.372 582.4C220.712 582.4 221.712 581.42 221.732 580.26ZM224.352 584H221.932C221.852 583.76 221.792 583.42 221.772 583.12C221.152 583.8 220.112 584.26 218.792 584.26C216.552 584.26 215.512 583.16 215.512 581.56C215.512 578.72 217.412 578.4 220.032 578.04C221.332 577.86 221.692 577.6 221.692 576.92C221.692 576.28 221.052 575.9 220.032 575.9C218.852 575.9 218.372 576.48 218.252 577.36H215.832C215.872 575.32 216.992 573.9 220.152 573.9C223.272 573.9 224.352 575.3 224.352 577.78V584ZM228.099 584H225.499V574.16H227.939V575.34C228.799 574.02 229.799 573.9 230.859 573.9H231.199V576.56C230.959 576.52 230.719 576.5 230.479 576.5C228.879 576.5 228.099 577.3 228.099 578.88V584ZM237.396 580.26L237.416 579.18C237.156 579.44 236.696 579.58 235.736 579.76C234.256 580.04 233.776 580.46 233.776 581.3C233.776 582.04 234.216 582.4 235.036 582.4C236.376 582.4 237.376 581.42 237.396 580.26ZM240.016 584H237.596C237.516 583.76 237.456 583.42 237.436 583.12C236.816 583.8 235.776 584.26 234.456 584.26C232.216 584.26 231.176 583.16 231.176 581.56C231.176 578.72 233.076 578.4 235.696 578.04C236.996 577.86 237.356 577.6 237.356 576.92C237.356 576.28 236.716 575.9 235.696 575.9C234.516 575.9 234.036 576.48 233.916 577.36H231.496C231.536 575.32 232.656 573.9 235.816 573.9C238.936 573.9 240.016 575.3 240.016 577.78V584ZM251.567 580.08V577.52H253.987V580.32C253.987 582.4 252.787 584.26 250.007 584.26C247.127 584.26 245.987 582.42 245.987 580.3V571.5H248.547V574.16H253.987V576H248.547V580.04C248.547 581.28 248.987 582 250.047 582C251.087 582 251.567 581.3 251.567 580.08ZM257.509 578.12H261.529C261.489 576.66 260.529 575.96 259.509 575.96C258.469 575.96 257.609 576.76 257.509 578.12ZM264.209 579.76H257.429C257.509 581.24 258.349 582.2 259.629 582.2C260.469 582.2 261.209 581.78 261.389 581.1H264.069C263.469 583.12 261.849 584.26 259.749 584.26C256.469 584.26 254.829 582.46 254.829 578.9C254.829 575.86 256.569 573.9 259.589 573.9C262.609 573.9 264.209 575.86 264.209 579.76ZM267.708 584H265.108V574.16H267.548V575.34C268.408 574.02 269.408 573.9 270.468 573.9H270.808V576.56C270.568 576.52 270.328 576.5 270.088 576.5C268.488 576.5 267.708 577.3 267.708 578.88V584ZM282.318 580.26L282.338 579.18C282.078 579.44 281.618 579.58 280.658 579.76C279.178 580.04 278.698 580.46 278.698 581.3C278.698 582.04 279.138 582.4 279.958 582.4C281.298 582.4 282.298 581.42 282.318 580.26ZM284.938 584H282.518C282.438 583.76 282.378 583.42 282.358 583.12C281.738 583.8 280.698 584.26 279.378 584.26C277.138 584.26 276.098 583.16 276.098 581.56C276.098 578.72 277.998 578.4 280.618 578.04C281.918 577.86 282.278 577.6 282.278 576.92C282.278 576.28 281.638 575.9 280.618 575.9C279.438 575.9 278.958 576.48 278.838 577.36H276.418C276.458 575.32 277.578 573.9 280.738 573.9C283.858 573.9 284.938 575.3 284.938 577.78V584ZM292.324 580.44H294.944C294.664 582.72 292.804 584.26 290.424 584.26C287.744 584.26 285.904 582.48 285.904 578.96C285.904 575.44 287.744 573.9 290.504 573.9C293.064 573.9 294.804 575.36 294.964 577.68H292.344C292.204 576.66 291.464 576.06 290.484 576.06C289.384 576.06 288.484 576.76 288.484 578.9C288.484 581.04 289.384 582.08 290.404 582.08C291.424 582.08 292.224 581.5 292.324 580.44ZM298.173 578.12H302.193C302.153 576.66 301.193 575.96 300.173 575.96C299.133 575.96 298.273 576.76 298.173 578.12ZM304.873 579.76H298.093C298.173 581.24 299.013 582.2 300.293 582.2C301.133 582.2 301.873 581.78 302.053 581.1H304.733C304.133 583.12 302.513 584.26 300.413 584.26C297.133 584.26 295.493 582.46 295.493 578.9C295.493 575.86 297.233 573.9 300.253 573.9C303.273 573.9 304.873 575.86 304.873 579.76ZM314.192 577.14H311.692C311.552 576.18 311.032 575.84 309.852 575.84C308.872 575.84 308.312 576.08 308.312 576.66C308.312 577.24 308.852 577.48 309.912 577.78C311.032 578.1 312.092 578.32 312.852 578.62C313.892 579.04 314.472 579.72 314.472 581C314.472 583.04 312.972 584.26 310.172 584.26C307.152 584.26 305.472 582.84 305.432 580.84H308.112C308.112 581.76 308.892 582.3 310.152 582.3C311.072 582.3 311.892 582.02 311.892 581.28C311.892 580.58 311.152 580.36 310.312 580.16C308.652 579.76 307.732 579.48 307.032 579.04C306.112 578.46 305.792 577.7 305.792 576.82C305.792 575.16 306.932 573.9 309.932 573.9C312.772 573.9 314.052 575.02 314.192 577.14ZM323.626 577.14H321.126C320.986 576.18 320.466 575.84 319.286 575.84C318.306 575.84 317.746 576.08 317.746 576.66C317.746 577.24 318.286 577.48 319.346 577.78C320.466 578.1 321.526 578.32 322.286 578.62C323.326 579.04 323.906 579.72 323.906 581C323.906 583.04 322.406 584.26 319.606 584.26C316.586 584.26 314.906 582.84 314.866 580.84H317.546C317.546 581.76 318.326 582.3 319.586 582.3C320.506 582.3 321.326 582.02 321.326 581.28C321.326 580.58 320.586 580.36 319.746 580.16C318.086 579.76 317.166 579.48 316.466 579.04C315.546 578.46 315.226 577.7 315.226 576.82C315.226 575.16 316.366 573.9 319.366 573.9C322.206 573.9 323.486 575.02 323.626 577.14ZM329.479 582.08C331.059 582.08 331.859 581.08 331.859 579.08C331.859 577.08 331.059 576.1 329.479 576.1C327.899 576.1 327.099 577.08 327.099 579.08C327.099 581.08 327.899 582.08 329.479 582.08ZM329.479 584.26C326.299 584.26 324.419 582.14 324.419 579.08C324.419 575.96 326.359 573.9 329.479 573.9C332.559 573.9 334.479 575.94 334.479 579.08C334.479 582.2 332.539 584.26 329.479 584.26ZM346.205 580.26L346.225 579.18C345.965 579.44 345.505 579.58 344.545 579.76C343.065 580.04 342.585 580.46 342.585 581.3C342.585 582.04 343.025 582.4 343.845 582.4C345.185 582.4 346.185 581.42 346.205 580.26ZM348.825 584H346.405C346.325 583.76 346.265 583.42 346.245 583.12C345.625 583.8 344.585 584.26 343.265 584.26C341.025 584.26 339.985 583.16 339.985 581.56C339.985 578.72 341.885 578.4 344.505 578.04C345.805 577.86 346.165 577.6 346.165 576.92C346.165 576.28 345.525 575.9 344.505 575.9C343.325 575.9 342.845 576.48 342.725 577.36H340.305C340.345 575.32 341.465 573.9 344.625 573.9C347.745 573.9 348.825 575.3 348.825 577.78V584ZM354.811 582.08C356.391 582.08 357.191 581.08 357.191 579.08C357.191 577.08 356.391 576.1 354.811 576.1C353.231 576.1 352.431 577.08 352.431 579.08C352.431 581.08 353.231 582.08 354.811 582.08ZM354.811 584.26C351.631 584.26 349.751 582.14 349.751 579.08C349.751 575.96 351.691 573.9 354.811 573.9C357.891 573.9 359.811 575.94 359.811 579.08C359.811 582.2 357.871 584.26 354.811 584.26ZM57.9234 604.26L57.9434 603.18C57.6834 603.44 57.2234 603.58 56.2634 603.76C54.7834 604.04 54.3034 604.46 54.3034 605.3C54.3034 606.04 54.7434 606.4 55.5634 606.4C56.9034 606.4 57.9034 605.42 57.9234 604.26ZM60.5434 608H58.1234C58.0434 607.76 57.9834 607.42 57.9634 607.12C57.3434 607.8 56.3034 608.26 54.9834 608.26C52.7434 608.26 51.7034 607.16 51.7034 605.56C51.7034 602.72 53.6034 602.4 56.2234 602.04C57.5234 601.86 57.8834 601.6 57.8834 600.92C57.8834 600.28 57.2434 599.9 56.2234 599.9C55.0434 599.9 54.5634 600.48 54.4434 601.36H52.0234C52.0634 599.32 53.1834 597.9 56.3434 597.9C59.4634 597.9 60.5434 599.3 60.5434 601.78V608ZM66.3299 606.04C67.8499 606.04 68.5699 605.02 68.5699 603C68.5699 601.24 67.6499 600.02 66.3499 600.02C65.1099 600.02 64.1499 601.18 64.1499 602.84C64.1499 604.98 64.8899 606.04 66.3299 606.04ZM64.2499 612.66H61.6899V598.16H64.1899L64.2099 599.36C64.8299 598.36 65.7499 597.9 66.9499 597.9C69.4299 597.9 71.2099 599.86 71.2099 603.18C71.2099 606.16 69.7099 608.26 67.1699 608.26C65.9499 608.26 64.9899 607.76 64.2499 606.72V612.66ZM74.7587 608H72.1587V594.56H74.7587V608ZM78.5101 608H75.9101V598.16H78.5101V608ZM78.5101 596.98H75.9101V594.56H78.5101V596.98ZM85.9377 604.44H88.5577C88.2777 606.72 86.4177 608.26 84.0377 608.26C81.3577 608.26 79.5177 606.48 79.5177 602.96C79.5177 599.44 81.3577 597.9 84.1177 597.9C86.6777 597.9 88.4177 599.36 88.5777 601.68H85.9577C85.8177 600.66 85.0777 600.06 84.0977 600.06C82.9977 600.06 82.0977 600.76 82.0977 602.9C82.0977 605.04 82.9977 606.08 84.0177 606.08C85.0377 606.08 85.8377 605.5 85.9377 604.44ZM95.2866 604.26L95.3066 603.18C95.0466 603.44 94.5866 603.58 93.6266 603.76C92.1466 604.04 91.6666 604.46 91.6666 605.3C91.6666 606.04 92.1066 606.4 92.9266 606.4C94.2666 606.4 95.2666 605.42 95.2866 604.26ZM97.9066 608H95.4866C95.4066 607.76 95.3466 607.42 95.3266 607.12C94.7066 607.8 93.6666 608.26 92.3466 608.26C90.1066 608.26 89.0666 607.16 89.0666 605.56C89.0666 602.72 90.9666 602.4 93.5866 602.04C94.8866 601.86 95.2466 601.6 95.2466 600.92C95.2466 600.28 94.6066 599.9 93.5866 599.9C92.4066 599.9 91.9266 600.48 91.8066 601.36H89.3866C89.4266 599.32 90.5466 597.9 93.7066 597.9C96.8266 597.9 97.9066 599.3 97.9066 601.78V608ZM104.633 604.08V601.52H107.053V604.32C107.053 606.4 105.853 608.26 103.073 608.26C100.193 608.26 99.0532 606.42 99.0532 604.3V595.5H101.613V598.16H107.053V600H101.613V604.04C101.613 605.28 102.053 606 103.113 606C104.153 606 104.633 605.3 104.633 604.08ZM110.776 608H108.176V598.16H110.776V608ZM110.776 596.98H108.176V594.56H110.776V596.98ZM117.743 608H115.023L111.503 598.16H114.403L116.463 604.66L118.543 598.16H121.283L117.743 608ZM126.139 606.08C127.719 606.08 128.519 605.08 128.519 603.08C128.519 601.08 127.719 600.1 126.139 600.1C124.559 600.1 123.759 601.08 123.759 603.08C123.759 605.08 124.559 606.08 126.139 606.08ZM126.139 608.26C122.959 608.26 121.079 606.14 121.079 603.08C121.079 599.96 123.019 597.9 126.139 597.9C129.219 597.9 131.139 599.94 131.139 603.08C131.139 606.2 129.199 608.26 126.139 608.26ZM139.365 602.12H143.385C143.345 600.66 142.385 599.96 141.365 599.96C140.325 599.96 139.465 600.76 139.365 602.12ZM146.065 603.76H139.285C139.365 605.24 140.205 606.2 141.485 606.2C142.325 606.2 143.065 605.78 143.245 605.1H145.925C145.325 607.12 143.705 608.26 141.605 608.26C138.325 608.26 136.685 606.46 136.685 602.9C136.685 599.86 138.425 597.9 141.445 597.9C144.465 597.9 146.065 599.86 146.065 603.76ZM157.368 604.08V601.52H159.788V604.32C159.788 606.4 158.588 608.26 155.808 608.26C152.928 608.26 151.788 606.42 151.788 604.3V595.5H154.348V598.16H159.788V600H154.348V604.04C154.348 605.28 154.788 606 155.848 606C156.888 606 157.368 605.3 157.368 604.08ZM165.69 606.08C167.27 606.08 168.07 605.08 168.07 603.08C168.07 601.08 167.27 600.1 165.69 600.1C164.11 600.1 163.31 601.08 163.31 603.08C163.31 605.08 164.11 606.08 165.69 606.08ZM165.69 608.26C162.51 608.26 160.63 606.14 160.63 603.08C160.63 599.96 162.57 597.9 165.69 597.9C168.77 597.9 170.69 599.94 170.69 603.08C170.69 606.2 168.75 608.26 165.69 608.26ZM176.291 606.14C177.531 606.14 178.491 604.98 178.491 603.32C178.491 601.18 177.751 600.12 176.311 600.12C174.791 600.12 174.071 601.14 174.071 603.16C174.071 604.92 174.991 606.14 176.291 606.14ZM180.951 608H178.451L178.431 606.8C177.811 607.8 176.891 608.26 175.691 608.26C173.211 608.26 171.431 606.3 171.431 602.98C171.431 600 172.931 597.9 175.471 597.9C176.691 597.9 177.651 598.4 178.391 599.44V594.56H180.951V608ZM188.06 604.26L188.08 603.18C187.82 603.44 187.36 603.58 186.4 603.76C184.92 604.04 184.44 604.46 184.44 605.3C184.44 606.04 184.88 606.4 185.7 606.4C187.04 606.4 188.04 605.42 188.06 604.26ZM190.68 608H188.26C188.18 607.76 188.12 607.42 188.1 607.12C187.48 607.8 186.44 608.26 185.12 608.26C182.88 608.26 181.84 607.16 181.84 605.56C181.84 602.72 183.74 602.4 186.36 602.04C187.66 601.86 188.02 601.6 188.02 600.92C188.02 600.28 187.38 599.9 186.36 599.9C185.18 599.9 184.7 600.48 184.58 601.36H182.16C182.2 599.32 183.32 597.9 186.48 597.9C189.6 597.9 190.68 599.3 190.68 601.78V608ZM200.247 601.14H197.747C197.607 600.18 197.087 599.84 195.907 599.84C194.927 599.84 194.367 600.08 194.367 600.66C194.367 601.24 194.907 601.48 195.967 601.78C197.087 602.1 198.147 602.32 198.907 602.62C199.947 603.04 200.527 603.72 200.527 605C200.527 607.04 199.027 608.26 196.227 608.26C193.207 608.26 191.527 606.84 191.487 604.84H194.167C194.167 605.76 194.947 606.3 196.207 606.3C197.127 606.3 197.947 606.02 197.947 605.28C197.947 604.58 197.207 604.36 196.367 604.16C194.707 603.76 193.787 603.48 193.087 603.04C192.167 602.46 191.847 601.7 191.847 600.82C191.847 599.16 192.987 597.9 195.987 597.9C198.827 597.9 200.107 599.02 200.247 601.14ZM212.044 604.26L212.064 603.18C211.804 603.44 211.344 603.58 210.384 603.76C208.904 604.04 208.424 604.46 208.424 605.3C208.424 606.04 208.864 606.4 209.684 606.4C211.024 606.4 212.024 605.42 212.044 604.26ZM214.664 608H212.244C212.164 607.76 212.104 607.42 212.084 607.12C211.464 607.8 210.424 608.26 209.104 608.26C206.864 608.26 205.824 607.16 205.824 605.56C205.824 602.72 207.724 602.4 210.344 602.04C211.644 601.86 212.004 601.6 212.004 600.92C212.004 600.28 211.364 599.9 210.344 599.9C209.164 599.9 208.684 600.48 208.564 601.36H206.144C206.184 599.32 207.304 597.9 210.464 597.9C213.584 597.9 214.664 599.3 214.664 601.78V608ZM224.231 601.14H221.731C221.591 600.18 221.071 599.84 219.891 599.84C218.911 599.84 218.351 600.08 218.351 600.66C218.351 601.24 218.891 601.48 219.951 601.78C221.071 602.1 222.131 602.32 222.891 602.62C223.931 603.04 224.511 603.72 224.511 605C224.511 607.04 223.011 608.26 220.211 608.26C217.191 608.26 215.511 606.84 215.471 604.84H218.151C218.151 605.76 218.931 606.3 220.191 606.3C221.111 606.3 221.931 606.02 221.931 605.28C221.931 604.58 221.191 604.36 220.351 604.16C218.691 603.76 217.771 603.48 217.071 603.04C216.151 602.46 215.831 601.7 215.831 600.82C215.831 599.16 216.971 597.9 219.971 597.9C222.811 597.9 224.091 599.02 224.231 601.14ZM238.489 601.14H235.989C235.849 600.18 235.329 599.84 234.149 599.84C233.169 599.84 232.609 600.08 232.609 600.66C232.609 601.24 233.149 601.48 234.209 601.78C235.329 602.1 236.389 602.32 237.149 602.62C238.189 603.04 238.769 603.72 238.769 605C238.769 607.04 237.269 608.26 234.469 608.26C231.449 608.26 229.769 606.84 229.729 604.84H232.409C232.409 605.76 233.189 606.3 234.449 606.3C235.369 606.3 236.189 606.02 236.189 605.28C236.189 604.58 235.449 604.36 234.609 604.16C232.949 603.76 232.029 603.48 231.329 603.04C230.409 602.46 230.089 601.7 230.089 600.82C230.089 599.16 231.229 597.9 234.229 597.9C237.069 597.9 238.349 599.02 238.489 601.14ZM248.362 608H245.902V606.62C245.222 607.74 244.202 608.26 242.842 608.26C240.882 608.26 239.502 606.8 239.502 604.64V598.16H242.102V604.24C242.102 605.48 242.662 606.08 243.762 606.08C245.082 606.08 245.782 605.14 245.782 603.84V598.16H248.362V608ZM255.462 604.26L255.482 603.18C255.222 603.44 254.762 603.58 253.802 603.76C252.322 604.04 251.842 604.46 251.842 605.3C251.842 606.04 252.282 606.4 253.102 606.4C254.442 606.4 255.442 605.42 255.462 604.26ZM258.082 608H255.662C255.582 607.76 255.522 607.42 255.502 607.12C254.882 607.8 253.842 608.26 252.522 608.26C250.282 608.26 249.242 607.16 249.242 605.56C249.242 602.72 251.142 602.4 253.762 602.04C255.062 601.86 255.422 601.6 255.422 600.92C255.422 600.28 254.782 599.9 253.762 599.9C252.582 599.9 252.102 600.48 251.982 601.36H249.562C249.602 599.32 250.722 597.9 253.882 597.9C257.002 597.9 258.082 599.3 258.082 601.78V608ZM267.649 601.14H265.149C265.009 600.18 264.489 599.84 263.309 599.84C262.329 599.84 261.769 600.08 261.769 600.66C261.769 601.24 262.309 601.48 263.369 601.78C264.489 602.1 265.549 602.32 266.309 602.62C267.349 603.04 267.929 603.72 267.929 605C267.929 607.04 266.429 608.26 263.629 608.26C260.609 608.26 258.929 606.84 258.889 604.84H261.569C261.569 605.76 262.349 606.3 263.609 606.3C264.529 606.3 265.349 606.02 265.349 605.28C265.349 604.58 264.609 604.36 263.769 604.16C262.109 603.76 261.189 603.48 260.489 603.04C259.569 602.46 259.249 601.7 259.249 600.82C259.249 599.16 260.389 597.9 263.389 597.9C266.229 597.9 267.509 599.02 267.649 601.14ZM277.067 608H274.507V600H273.047V598.16H274.507C274.507 595.76 275.887 594.56 278.687 594.56V596.66C277.367 596.66 277.067 597.02 277.067 598.16H278.747V600H277.067V608ZM288.245 608H285.785V606.62C285.105 607.74 284.085 608.26 282.725 608.26C280.765 608.26 279.385 606.8 279.385 604.64V598.16H281.985V604.24C281.985 605.48 282.545 606.08 283.645 606.08C284.965 606.08 285.665 605.14 285.665 603.84V598.16H288.245V608ZM298.305 608H295.685V602.04C295.685 600.52 295.245 600.1 294.005 600.1C292.645 600.1 291.985 600.86 291.985 602.36V608H289.385V598.16H291.865V599.6C292.465 598.5 293.465 597.9 295.045 597.9C296.925 597.9 298.305 599.04 298.305 601.18V608ZM305.684 604.44H308.304C308.024 606.72 306.164 608.26 303.784 608.26C301.104 608.26 299.264 606.48 299.264 602.96C299.264 599.44 301.104 597.9 303.864 597.9C306.424 597.9 308.164 599.36 308.324 601.68H305.704C305.564 600.66 304.824 600.06 303.844 600.06C302.744 600.06 301.844 600.76 301.844 602.9C301.844 605.04 302.744 606.08 303.764 606.08C304.784 606.08 305.584 605.5 305.684 604.44ZM302.864 612.66V611.8C303.684 611.74 304.124 611.28 304.144 610.5H302.864V608.86H305.164V609.94C305.164 611.38 304.644 612.5 302.864 612.66ZM313.913 606.08C315.493 606.08 316.293 605.08 316.293 603.08C316.293 601.08 315.493 600.1 313.913 600.1C312.333 600.1 311.533 601.08 311.533 603.08C311.533 605.08 312.333 606.08 313.913 606.08ZM313.913 608.26C310.733 608.26 308.853 606.14 308.853 603.08C308.853 599.96 310.793 597.9 313.913 597.9C316.993 597.9 318.913 599.94 318.913 603.08C318.913 606.2 316.973 608.26 313.913 608.26ZM315.913 593.98L317.413 594.52C316.973 595.96 316.093 596.48 315.233 596.48C314.213 596.48 313.533 595.58 312.673 595.58C312.513 595.58 312.133 595.72 311.893 596.46L310.513 595.72C310.933 594.42 311.633 593.96 312.453 593.96C313.673 593.96 314.353 594.92 315.113 594.92C315.353 594.92 315.793 594.68 315.913 593.98ZM322.314 602.12H326.334C326.294 600.66 325.334 599.96 324.314 599.96C323.274 599.96 322.414 600.76 322.314 602.12ZM329.014 603.76H322.234C322.314 605.24 323.154 606.2 324.434 606.2C325.274 606.2 326.014 605.78 326.194 605.1H328.874C328.274 607.12 326.654 608.26 324.554 608.26C321.274 608.26 319.634 606.46 319.634 602.9C319.634 599.86 321.374 597.9 324.394 597.9C327.414 597.9 329.014 599.86 329.014 603.76ZM338.333 601.14H335.833C335.693 600.18 335.173 599.84 333.993 599.84C333.013 599.84 332.453 600.08 332.453 600.66C332.453 601.24 332.993 601.48 334.053 601.78C335.173 602.1 336.233 602.32 336.993 602.62C338.033 603.04 338.613 603.72 338.613 605C338.613 607.04 337.113 608.26 334.313 608.26C331.293 608.26 329.613 606.84 329.573 604.84H332.253C332.253 605.76 333.033 606.3 334.293 606.3C335.213 606.3 336.033 606.02 336.033 605.28C336.033 604.58 335.293 604.36 334.453 604.16C332.793 603.76 331.873 603.48 331.173 603.04C330.253 602.46 329.933 601.7 329.933 600.82C329.933 599.16 331.073 597.9 334.073 597.9C336.913 597.9 338.193 599.02 338.333 601.14ZM342.066 608H339.286V605.3H342.066V608Z" fill="#F2F0EF"/>
<path fill-rule="evenodd" clip-rule="evenodd" d="M154.778 322.556C154.778 311.534 159.226 300.965 167.144 293.171C175.063 285.378 185.802 281 197 281C208.198 281 218.937 285.378 226.856 293.171C234.774 300.965 239.222 311.534 239.222 322.556C239.222 333.577 234.774 344.147 226.856 351.94C218.937 359.733 208.198 364.111 197 364.111C185.802 364.111 175.063 359.733 167.144 351.94C159.226 344.147 154.778 333.577 154.778 322.556ZM154.778 384.889C140.78 384.889 127.356 390.362 117.458 400.103C107.56 409.845 102 423.057 102 436.833C102 445.099 105.336 453.027 111.275 458.872C117.214 464.716 125.268 468 133.667 468H260.333C268.732 468 276.786 464.716 282.725 458.872C288.664 453.027 292 445.099 292 436.833C292 423.057 286.439 409.845 276.542 400.103C266.644 390.362 253.22 384.889 239.222 384.889H154.778Z" fill="#F2F0EF"/>
</g>
<defs>
<clipPath id="clip0_51_501">
<rect width="390" height="852" fill="white"/>
</clipPath>
</defs>
</svg>
