<svg width="390" height="852" viewBox="0 0 390 852" fill="none" xmlns="http://www.w3.org/2000/svg">
<g clip-path="url(#clip0_51_458)">
<rect width="390" height="852" fill="#191919"/>
<path d="M421.511 302.494L468.033 255.533C477.396 246.17 484.565 235.491 489.539 223.494C494.513 211.498 497 198.917 497 185.75C497 158.246 487.421 134.909 468.262 115.738C449.103 96.5678 425.765 86.9883 398.25 87C385.083 87 372.502 89.487 360.506 94.4611C348.509 99.4352 337.83 106.604 328.467 115.967L281.506 162.489L421.511 302.494ZM279.75 403C292.917 403 305.498 400.513 317.494 395.539C329.491 390.565 340.17 383.396 349.533 374.033L396.494 327.511L256.489 187.506L209.967 234.467C200.604 243.83 193.435 254.509 188.461 266.506C183.487 278.502 181 291.083 181 304.25C181 331.754 190.585 355.085 209.756 374.244C228.927 393.403 252.258 402.988 279.75 403Z" fill="#55CE98" fill-opacity="0.2"/>
<path d="M151.511 592.494L198.033 545.533C207.396 536.17 214.565 525.491 219.539 513.494C224.513 501.498 227 488.917 227 475.75C227 448.246 217.421 424.909 198.262 405.738C179.103 386.568 155.765 376.988 128.25 377C115.083 377 102.502 379.487 90.5056 384.461C78.5093 389.435 67.8296 396.604 58.4667 405.967L11.5056 452.489L151.511 592.494ZM9.75 693C22.9167 693 35.4981 690.513 47.4944 685.539C59.4907 680.565 70.1704 673.396 79.5333 664.033L126.494 617.511L-13.5111 477.506L-60.0333 524.467C-69.3963 533.83 -76.5648 544.509 -81.5389 556.506C-86.513 568.502 -89 581.083 -89 594.25C-89 621.754 -79.4147 645.085 -60.244 664.244C-41.0733 683.403 -17.742 692.988 9.75 693Z" fill="#55CE98" fill-opacity="0.2"/>
<path d="M98.5888 524.216H92.5088V539H82.0128V494.2H103.837C107.079 494.2 109.917 494.84 112.349 496.12C114.781 497.357 116.658 499.128 117.981 501.432C119.303 503.736 119.965 506.381 119.965 509.368C119.965 512.781 119.069 515.704 117.277 518.136C115.527 520.568 113.031 522.296 109.789 523.32L122.461 539H109.981L98.5888 524.216ZM109.597 509.496C109.597 507.491 108.978 505.933 107.741 504.824C106.546 503.715 104.839 503.16 102.621 503.16H92.4448V515.768H102.621C104.882 515.768 106.61 515.235 107.805 514.168C108.999 513.059 109.597 511.501 109.597 509.496ZM136.489 506.68C139.945 506.68 142.932 507.341 145.449 508.664C147.967 509.944 149.887 511.779 151.209 514.168C152.575 516.515 153.257 519.267 153.257 522.424C153.257 523.448 153.151 524.707 152.937 526.2H129.705C130.004 527.821 130.879 529.144 132.329 530.168C133.78 531.149 135.636 531.64 137.897 531.64C139.476 531.64 141.012 531.405 142.505 530.936C143.999 530.467 145.279 529.805 146.345 528.952L151.593 534.584C149.801 536.248 147.668 537.528 145.193 538.424C142.761 539.32 140.159 539.768 137.385 539.768C133.716 539.768 130.537 539.107 127.849 537.784C125.161 536.419 123.092 534.499 121.641 532.024C120.191 529.549 119.465 526.627 119.465 523.256C119.465 520.013 120.169 517.133 121.577 514.616C123.028 512.099 125.033 510.157 127.593 508.792C130.153 507.384 133.119 506.68 136.489 506.68ZM136.809 514.616C134.804 514.616 133.161 515.128 131.881 516.152C130.644 517.176 129.94 518.605 129.769 520.44H143.721C143.593 518.605 142.911 517.176 141.673 516.152C140.479 515.128 138.857 514.616 136.809 514.616ZM180.644 533.816C182.777 534.797 184.42 536.163 185.572 537.912C186.766 539.619 187.364 541.603 187.364 543.864C187.364 546.509 186.638 548.835 185.188 550.84C183.737 552.888 181.689 554.445 179.044 555.512C176.398 556.621 173.326 557.176 169.828 557.176C166.414 557.176 163.428 556.621 160.868 555.512C158.308 554.403 156.324 552.824 154.916 550.776C153.55 548.728 152.868 546.36 152.868 543.672C152.868 542.989 152.889 542.477 152.932 542.136H162.596C162.51 544.227 163.086 545.848 164.324 547C165.604 548.152 167.438 548.728 169.828 548.728C171.961 548.728 173.689 548.237 175.012 547.256C176.334 546.317 176.996 545.059 176.996 543.48C176.996 541.859 176.377 540.6 175.14 539.704C173.945 538.851 172.217 538.424 169.956 538.424C166.457 538.424 163.385 537.763 160.74 536.44C158.137 535.117 156.11 533.261 154.66 530.872C153.252 528.44 152.548 525.624 152.548 522.424C152.548 519.352 153.273 516.621 154.724 514.232C156.217 511.8 158.265 509.923 160.868 508.6C163.513 507.235 166.521 506.552 169.892 506.552C172.494 506.552 174.884 507.064 177.06 508.088L180.772 503.48L188.132 508.792L183.908 513.72C186.041 516.152 187.108 519.053 187.108 522.424C187.108 524.771 186.532 526.947 185.38 528.952C184.27 530.915 182.692 532.536 180.644 533.816ZM169.892 529.912C172.11 529.912 173.902 529.229 175.268 527.864C176.633 526.499 177.316 524.685 177.316 522.424C177.316 520.163 176.633 518.371 175.268 517.048C173.945 515.683 172.153 515 169.892 515C167.673 515 165.881 515.683 164.516 517.048C163.15 518.371 162.468 520.163 162.468 522.424C162.468 524.643 163.15 526.456 164.516 527.864C165.881 529.229 167.673 529.912 169.892 529.912ZM194.228 504.248C192.479 504.248 191.05 503.736 189.94 502.712C188.874 501.688 188.34 500.387 188.34 498.808C188.34 497.187 188.895 495.864 190.004 494.84C191.114 493.816 192.522 493.304 194.228 493.304C195.935 493.304 197.343 493.816 198.452 494.84C199.562 495.864 200.116 497.187 200.116 498.808C200.116 500.387 199.562 501.688 198.452 502.712C197.386 503.736 195.978 504.248 194.228 504.248ZM189.172 507.384H199.22V539H189.172V507.384ZM214.605 539.832C209.016 539.832 204.152 538.424 200.013 535.608L203.853 528.696C205.389 529.635 207.16 530.36 209.165 530.872C211.213 531.384 213.24 531.64 215.245 531.64C218.019 531.64 219.405 530.893 219.405 529.4C219.405 528.632 219.021 528.056 218.253 527.672C217.485 527.288 216.205 527.032 214.413 526.904C210.403 526.691 207.203 525.688 204.813 523.896C202.467 522.104 201.293 519.757 201.293 516.856C201.293 513.699 202.573 511.203 205.133 509.368C207.693 507.491 211.149 506.552 215.501 506.552C217.976 506.552 220.323 506.851 222.541 507.448C224.803 508.045 226.744 508.877 228.365 509.944L224.461 516.664C222.072 515.299 219.235 514.616 215.949 514.616C212.707 514.616 211.085 515.384 211.085 516.92C211.085 517.56 211.405 518.051 212.045 518.392C212.728 518.733 213.859 518.989 215.437 519.16C219.96 519.501 223.395 520.525 225.741 522.232C228.131 523.939 229.325 526.328 229.325 529.4C229.325 532.643 228.024 535.203 225.421 537.08C222.819 538.915 219.213 539.832 214.605 539.832ZM252.868 537.784C250.394 539.021 247.599 539.64 244.484 539.64C241.028 539.64 238.298 538.68 236.292 536.76C234.287 534.797 233.284 531.661 233.284 527.352V515.384H227.908V507.384H233.284V499.512L243.268 498.424V507.384H251.14V515.384H243.268V527.352C243.268 528.632 243.588 529.592 244.228 530.232C244.868 530.829 245.743 531.128 246.852 531.128C248.09 531.128 249.306 530.829 250.5 530.232L252.868 537.784ZM270.841 506.68C272.292 506.68 273.743 506.957 275.193 507.512C276.644 508.024 277.903 508.792 278.969 509.816L274.745 517.176C273.849 516.621 273.017 516.216 272.249 515.96C271.481 515.704 270.671 515.576 269.817 515.576C267.684 515.576 265.999 516.259 264.761 517.624C263.524 518.989 262.905 520.995 262.905 523.64V539H252.857V507.384H261.625L262.393 511.352C264.441 508.237 267.257 506.68 270.841 506.68ZM292.297 506.68C295.753 506.68 298.739 507.341 301.257 508.664C303.774 509.944 305.694 511.779 307.017 514.168C308.382 516.515 309.065 519.267 309.065 522.424C309.065 523.448 308.958 524.707 308.745 526.2H285.513C285.811 527.821 286.686 529.144 288.137 530.168C289.587 531.149 291.443 531.64 293.705 531.64C295.283 531.64 296.819 531.405 298.313 530.936C299.806 530.467 301.086 529.805 302.153 528.952L307.401 534.584C305.609 536.248 303.475 537.528 301.001 538.424C298.569 539.32 295.966 539.768 293.193 539.768C289.523 539.768 286.345 539.107 283.657 537.784C280.969 536.419 278.899 534.499 277.449 532.024C275.998 529.549 275.273 526.627 275.273 523.256C275.273 520.013 275.977 517.133 277.385 514.616C278.835 512.099 280.841 510.157 283.401 508.792C285.961 507.384 288.926 506.68 292.297 506.68ZM292.617 514.616C290.611 514.616 288.969 515.128 287.689 516.152C286.451 517.176 285.747 518.605 285.577 520.44H299.529C299.401 518.605 298.718 517.176 297.481 516.152C296.286 515.128 294.665 514.616 292.617 514.616Z" fill="#F2F0EF"/>
<path d="M57.5765 582.08C59.5765 582.08 61.1765 580.68 61.1765 577.54C61.1765 574.4 59.8965 572.74 57.5765 572.74C55.2365 572.74 53.9365 574.4 53.9365 577.54C53.9365 580.68 55.2765 582.08 57.5765 582.08ZM57.5765 584.46C53.4965 584.46 51.1965 581.96 51.1965 577.48C51.1965 572.98 53.4965 570.28 57.5765 570.28C61.6565 570.28 63.9165 572.98 63.9165 577.54C63.9165 582.1 61.6565 584.46 57.5765 584.46ZM73.2349 577.14H70.7349C70.5949 576.18 70.0749 575.84 68.8949 575.84C67.9149 575.84 67.3549 576.08 67.3549 576.66C67.3549 577.24 67.8949 577.48 68.9549 577.78C70.0749 578.1 71.1349 578.32 71.8949 578.62C72.9349 579.04 73.5149 579.72 73.5149 581C73.5149 583.04 72.0149 584.26 69.2149 584.26C66.1949 584.26 64.5149 582.84 64.4749 580.84H67.1549C67.1549 581.76 67.9349 582.3 69.1949 582.3C70.1149 582.3 70.9349 582.02 70.9349 581.28C70.9349 580.58 70.1949 580.36 69.3549 580.16C67.6949 579.76 66.7749 579.48 66.0749 579.04C65.1549 578.46 64.8349 577.7 64.8349 576.82C64.8349 575.16 65.9749 573.9 68.9749 573.9C71.8149 573.9 73.0949 575.02 73.2349 577.14ZM81.6727 584H79.0727V574.16H81.5127V575.34C82.3727 574.02 83.3727 573.9 84.4327 573.9H84.7727V576.56C84.5327 576.52 84.2927 576.5 84.0527 576.5C82.4527 576.5 81.6727 577.3 81.6727 578.88V584ZM87.353 578.12H91.373C91.333 576.66 90.373 575.96 89.353 575.96C88.313 575.96 87.453 576.76 87.353 578.12ZM94.053 579.76H87.273C87.353 581.24 88.193 582.2 89.473 582.2C90.313 582.2 91.053 581.78 91.233 581.1H93.913C93.313 583.12 91.693 584.26 89.593 584.26C86.313 584.26 84.673 582.46 84.673 578.9C84.673 575.86 86.413 573.9 89.433 573.9C92.453 573.9 94.053 575.86 94.053 579.76ZM109.032 584H106.492V578.04C106.492 576.86 105.872 576.02 104.952 576.02C103.992 576.02 103.292 576.92 103.292 578.12V584H100.692V578.08C100.692 576.5 100.272 576.1 99.1316 576.1C98.0916 576.1 97.5516 576.74 97.5516 578.02V584H94.9516V574.16H97.3916V575.6C98.0516 574.3 98.9716 573.9 100.272 573.9C101.612 573.9 102.252 574.32 103.012 575.46C103.552 574.38 104.432 573.9 105.672 573.9C107.652 573.9 109.032 575.34 109.032 577.18V584ZM112.49 578.12H116.51C116.47 576.66 115.51 575.96 114.49 575.96C113.45 575.96 112.59 576.76 112.49 578.12ZM119.19 579.76H112.41C112.49 581.24 113.33 582.2 114.61 582.2C115.45 582.2 116.19 581.78 116.37 581.1H119.05C118.45 583.12 116.83 584.26 114.73 584.26C111.45 584.26 109.81 582.46 109.81 578.9C109.81 575.86 111.55 573.9 114.57 573.9C117.59 573.9 119.19 575.86 119.19 579.76ZM117.69 571.04L113.23 572.92L112.61 571.82L116.75 569.4L117.69 571.04ZM124.748 582.14C125.988 582.14 126.948 580.98 126.948 579.32C126.948 577.18 126.208 576.12 124.768 576.12C123.248 576.12 122.528 577.14 122.528 579.16C122.528 580.92 123.448 582.14 124.748 582.14ZM129.408 584H126.908L126.888 582.8C126.268 583.8 125.348 584.26 124.148 584.26C121.668 584.26 119.888 582.3 119.888 578.98C119.888 576 121.388 573.9 123.928 573.9C125.148 573.9 126.108 574.4 126.848 575.44V570.56H129.408V584ZM133.217 584H130.617V574.16H133.217V584ZM133.217 572.98H130.617V570.56H133.217V572.98ZM139.245 582.08C140.825 582.08 141.625 581.08 141.625 579.08C141.625 577.08 140.825 576.1 139.245 576.1C137.665 576.1 136.865 577.08 136.865 579.08C136.865 581.08 137.665 582.08 139.245 582.08ZM139.245 584.26C136.065 584.26 134.185 582.14 134.185 579.08C134.185 575.96 136.125 573.9 139.245 573.9C142.325 573.9 144.245 575.94 144.245 579.08C144.245 582.2 142.305 584.26 139.245 584.26ZM153.606 577.14H151.106C150.966 576.18 150.446 575.84 149.266 575.84C148.286 575.84 147.726 576.08 147.726 576.66C147.726 577.24 148.266 577.48 149.326 577.78C150.446 578.1 151.506 578.32 152.266 578.62C153.306 579.04 153.886 579.72 153.886 581C153.886 583.04 152.386 584.26 149.586 584.26C146.566 584.26 144.886 582.84 144.846 580.84H147.526C147.526 581.76 148.306 582.3 149.566 582.3C150.486 582.3 151.306 582.02 151.306 581.28C151.306 580.58 150.566 580.36 149.726 580.16C148.066 579.76 147.146 579.48 146.446 579.04C145.526 578.46 145.206 577.7 145.206 576.82C145.206 575.16 146.346 573.9 149.346 573.9C152.186 573.9 153.466 575.02 153.606 577.14ZM171.184 584.54H173.624C173.624 587.08 172.004 588.66 169.884 588.66C167.744 588.66 166.164 586.98 166.164 584.56V582.78C165.424 583.78 164.484 584.26 163.284 584.26C160.744 584.26 159.244 582.16 159.244 579.18C159.244 575.86 161.024 573.9 163.504 573.9C164.704 573.9 165.624 574.36 166.244 575.36L166.264 574.16H168.764V584.58C168.764 585.92 169.224 586.36 170.044 586.36C170.804 586.36 171.184 585.84 171.184 584.54ZM164.124 582.04C165.564 582.04 166.304 580.98 166.304 578.84C166.304 577.18 165.344 576.02 164.104 576.02C162.804 576.02 161.884 577.24 161.884 579C161.884 581.02 162.604 582.04 164.124 582.04ZM178.558 584H176.098V582.62C175.418 583.74 174.398 584.26 173.038 584.26C171.078 584.26 169.698 582.8 169.698 580.64V574.16H172.298V580.24C172.298 581.48 172.858 582.08 173.958 582.08C175.278 582.08 175.978 581.14 175.978 579.84V574.16H178.558V584ZM182.158 578.12H186.178C186.138 576.66 185.178 575.96 184.158 575.96C183.118 575.96 182.258 576.76 182.158 578.12ZM188.858 579.76H182.078C182.158 581.24 182.998 582.2 184.278 582.2C185.118 582.2 185.858 581.78 186.038 581.1H188.718C188.118 583.12 186.498 584.26 184.398 584.26C181.118 584.26 179.478 582.46 179.478 578.9C179.478 575.86 181.218 573.9 184.238 573.9C187.258 573.9 188.858 575.86 188.858 579.76ZM197.041 578.12H201.061C201.021 576.66 200.061 575.96 199.041 575.96C198.001 575.96 197.141 576.76 197.041 578.12ZM203.741 579.76H196.961C197.041 581.24 197.881 582.2 199.161 582.2C200.001 582.2 200.741 581.78 200.921 581.1H203.601C203.001 583.12 201.381 584.26 199.281 584.26C196.001 584.26 194.361 582.46 194.361 578.9C194.361 575.86 196.101 573.9 199.121 573.9C202.141 573.9 203.741 575.86 203.741 579.76ZM213.059 577.14H210.559C210.419 576.18 209.899 575.84 208.719 575.84C207.739 575.84 207.179 576.08 207.179 576.66C207.179 577.24 207.719 577.48 208.779 577.78C209.899 578.1 210.959 578.32 211.719 578.62C212.759 579.04 213.339 579.72 213.339 581C213.339 583.04 211.839 584.26 209.039 584.26C206.019 584.26 204.339 582.84 204.299 580.84H206.979C206.979 581.76 207.759 582.3 209.019 582.3C209.939 582.3 210.759 582.02 210.759 581.28C210.759 580.58 210.019 580.36 209.179 580.16C207.519 579.76 206.599 579.48 205.899 579.04C204.979 578.46 204.659 577.7 204.659 576.82C204.659 575.16 205.799 573.9 208.799 573.9C211.639 573.9 212.919 575.02 213.059 577.14ZM219.536 580.08V577.52H221.956V580.32C221.956 582.4 220.756 584.26 217.976 584.26C215.096 584.26 213.956 582.42 213.956 580.3V571.5H216.516V574.16H221.956V576H216.516V580.04C216.516 581.28 216.956 582 218.016 582C219.056 582 219.536 581.3 219.536 580.08ZM228.978 580.26L228.998 579.18C228.738 579.44 228.278 579.58 227.318 579.76C225.838 580.04 225.358 580.46 225.358 581.3C225.358 582.04 225.798 582.4 226.618 582.4C227.958 582.4 228.958 581.42 228.978 580.26ZM231.598 584H229.178C229.098 583.76 229.038 583.42 229.018 583.12C228.398 583.8 227.358 584.26 226.038 584.26C223.798 584.26 222.758 583.16 222.758 581.56C222.758 578.72 224.658 578.4 227.278 578.04C228.578 577.86 228.938 577.6 228.938 576.92C228.938 576.28 228.298 575.9 227.278 575.9C226.098 575.9 225.618 576.48 225.498 577.36H223.078C223.118 575.32 224.238 573.9 227.398 573.9C230.518 573.9 231.598 575.3 231.598 577.78V584ZM230.518 571.04L226.058 572.92L225.438 571.82L229.578 569.4L230.518 571.04ZM246.429 584H243.969V582.62C243.289 583.74 242.269 584.26 240.909 584.26C238.949 584.26 237.569 582.8 237.569 580.64V574.16H240.169V580.24C240.169 581.48 240.729 582.08 241.829 582.08C243.149 582.08 243.849 581.14 243.849 579.84V574.16H246.429V584ZM253.149 580.08V577.52H255.569V580.32C255.569 582.4 254.369 584.26 251.589 584.26C248.709 584.26 247.569 582.42 247.569 580.3V571.5H250.129V574.16H255.569V576H250.129V580.04C250.129 581.28 250.569 582 251.629 582C252.669 582 253.149 581.3 253.149 580.08ZM259.291 584H256.691V574.16H259.291V584ZM259.291 572.98H256.691V570.56H259.291V572.98ZM263.079 584H260.479V570.56H263.079V584ZM266.83 584H264.23V574.16H266.83V584ZM266.83 572.98H264.23V570.56H266.83V572.98ZM276.158 584H267.678V582L272.698 576.22H268.018V574.16H276.018V576.26L270.998 581.88H276.158V584ZM282.884 580.26L282.904 579.18C282.644 579.44 282.184 579.58 281.224 579.76C279.744 580.04 279.264 580.46 279.264 581.3C279.264 582.04 279.704 582.4 280.524 582.4C281.864 582.4 282.864 581.42 282.884 580.26ZM285.504 584H283.084C283.004 583.76 282.944 583.42 282.924 583.12C282.304 583.8 281.264 584.26 279.944 584.26C277.704 584.26 276.664 583.16 276.664 581.56C276.664 578.72 278.564 578.4 281.184 578.04C282.484 577.86 282.844 577.6 282.844 576.92C282.844 576.28 282.204 575.9 281.184 575.9C280.004 575.9 279.524 576.48 279.404 577.36H276.984C277.024 575.32 278.144 573.9 281.304 573.9C284.424 573.9 285.504 575.3 285.504 577.78V584ZM295.571 584H292.951V578.04C292.951 576.52 292.511 576.1 291.271 576.1C289.911 576.1 289.251 576.86 289.251 578.36V584H286.651V574.16H289.131V575.6C289.731 574.5 290.731 573.9 292.311 573.9C294.191 573.9 295.571 575.04 295.571 577.18V584ZM301.369 582.14C302.609 582.14 303.569 580.98 303.569 579.32C303.569 577.18 302.829 576.12 301.389 576.12C299.869 576.12 299.149 577.14 299.149 579.16C299.149 580.92 300.069 582.14 301.369 582.14ZM306.029 584H303.529L303.509 582.8C302.889 583.8 301.969 584.26 300.769 584.26C298.289 584.26 296.509 582.3 296.509 578.98C296.509 576 298.009 573.9 300.549 573.9C301.769 573.9 302.729 574.4 303.469 575.44V570.56H306.029V584ZM312.018 582.08C313.598 582.08 314.398 581.08 314.398 579.08C314.398 577.08 313.598 576.1 312.018 576.1C310.438 576.1 309.638 577.08 309.638 579.08C309.638 581.08 310.438 582.08 312.018 582.08ZM312.018 584.26C308.838 584.26 306.958 582.14 306.958 579.08C306.958 575.96 308.898 573.9 312.018 573.9C315.098 573.9 317.018 575.94 317.018 579.08C317.018 582.2 315.078 584.26 312.018 584.26ZM331.704 584H329.084V578.04C329.084 576.52 328.644 576.1 327.404 576.1C326.044 576.1 325.384 576.86 325.384 578.36V584H322.784V574.16H325.264V575.6C325.864 574.5 326.864 573.9 328.444 573.9C330.324 573.9 331.704 575.04 331.704 577.18V584ZM337.682 582.08C339.262 582.08 340.062 581.08 340.062 579.08C340.062 577.08 339.262 576.1 337.682 576.1C336.102 576.1 335.302 577.08 335.302 579.08C335.302 581.08 336.102 582.08 337.682 582.08ZM337.682 584.26C334.502 584.26 332.622 582.14 332.622 579.08C332.622 575.96 334.562 573.9 337.682 573.9C340.762 573.9 342.682 575.94 342.682 579.08C342.682 582.2 340.742 584.26 337.682 584.26ZM40.6625 608H38.1225V602.04C38.1225 600.86 37.5025 600.02 36.5825 600.02C35.6225 600.02 34.9225 600.92 34.9225 602.12V608H32.3225V602.08C32.3225 600.5 31.9025 600.1 30.7625 600.1C29.7225 600.1 29.1825 600.74 29.1825 602.02V608H26.5825V598.16H29.0225V599.6C29.6825 598.3 30.6025 597.9 31.9025 597.9C33.2425 597.9 33.8825 598.32 34.6425 599.46C35.1825 598.38 36.0625 597.9 37.3025 597.9C39.2825 597.9 40.6625 599.34 40.6625 601.18V608ZM46.5006 606.08C48.0806 606.08 48.8806 605.08 48.8806 603.08C48.8806 601.08 48.0806 600.1 46.5006 600.1C44.9206 600.1 44.1206 601.08 44.1206 603.08C44.1206 605.08 44.9206 606.08 46.5006 606.08ZM46.5006 608.26C43.3206 608.26 41.4406 606.14 41.4406 603.08C41.4406 599.96 43.3806 597.9 46.5006 597.9C49.5806 597.9 51.5006 599.94 51.5006 603.08C51.5006 606.2 49.5606 608.26 46.5006 608.26ZM66.5219 608H63.9819V602.04C63.9819 600.86 63.3619 600.02 62.4419 600.02C61.4819 600.02 60.7819 600.92 60.7819 602.12V608H58.1819V602.08C58.1819 600.5 57.7619 600.1 56.6219 600.1C55.5819 600.1 55.0419 600.74 55.0419 602.02V608H52.4419V598.16H54.8819V599.6C55.5419 598.3 56.4619 597.9 57.7619 597.9C59.1019 597.9 59.7419 598.32 60.5019 599.46C61.0419 598.38 61.9219 597.9 63.1619 597.9C65.1419 597.9 66.5219 599.34 66.5219 601.18V608ZM69.98 602.12H74C73.96 600.66 73 599.96 71.98 599.96C70.94 599.96 70.08 600.76 69.98 602.12ZM76.68 603.76H69.9C69.98 605.24 70.82 606.2 72.1 606.2C72.94 606.2 73.68 605.78 73.86 605.1H76.54C75.94 607.12 74.32 608.26 72.22 608.26C68.94 608.26 67.3 606.46 67.3 602.9C67.3 599.86 69.04 597.9 72.06 597.9C75.08 597.9 76.68 599.86 76.68 603.76ZM86.4986 608H83.8786V602.04C83.8786 600.52 83.4386 600.1 82.1986 600.1C80.8386 600.1 80.1786 600.86 80.1786 602.36V608H77.5786V598.16H80.0586V599.6C80.6586 598.5 81.6586 597.9 83.2386 597.9C85.1186 597.9 86.4986 599.04 86.4986 601.18V608ZM93.2172 604.08V601.52H95.6372V604.32C95.6372 606.4 94.4372 608.26 91.6572 608.26C88.7772 608.26 87.6372 606.42 87.6372 604.3V595.5H90.1972V598.16H95.6372V600H90.1972V604.04C90.1972 605.28 90.6372 606 91.6972 606C92.7372 606 93.2172 605.3 93.2172 604.08ZM101.54 606.08C103.12 606.08 103.92 605.08 103.92 603.08C103.92 601.08 103.12 600.1 101.54 600.1C99.9597 600.1 99.1597 601.08 99.1597 603.08C99.1597 605.08 99.9597 606.08 101.54 606.08ZM101.54 608.26C98.3597 608.26 96.4797 606.14 96.4797 603.08C96.4797 599.96 98.4197 597.9 101.54 597.9C104.62 597.9 106.54 599.94 106.54 603.08C106.54 606.2 104.6 608.26 101.54 608.26ZM116.945 606.04C118.465 606.04 119.185 605.02 119.185 603C119.185 601.24 118.265 600.02 116.965 600.02C115.725 600.02 114.765 601.18 114.765 602.84C114.765 604.98 115.505 606.04 116.945 606.04ZM114.865 612.66H112.305V598.16H114.805L114.825 599.36C115.445 598.36 116.365 597.9 117.565 597.9C120.045 597.9 121.825 599.86 121.825 603.18C121.825 606.16 120.325 608.26 117.785 608.26C116.565 608.26 115.605 607.76 114.865 606.72V612.66ZM128.734 604.26L128.754 603.18C128.494 603.44 128.034 603.58 127.074 603.76C125.594 604.04 125.114 604.46 125.114 605.3C125.114 606.04 125.554 606.4 126.374 606.4C127.714 606.4 128.714 605.42 128.734 604.26ZM131.354 608H128.934C128.854 607.76 128.794 607.42 128.774 607.12C128.154 607.8 127.114 608.26 125.794 608.26C123.554 608.26 122.514 607.16 122.514 605.56C122.514 602.72 124.414 602.4 127.034 602.04C128.334 601.86 128.694 601.6 128.694 600.92C128.694 600.28 128.054 599.9 127.034 599.9C125.854 599.9 125.374 600.48 125.254 601.36H122.834C122.874 599.32 123.994 597.9 127.154 597.9C130.274 597.9 131.354 599.3 131.354 601.78V608ZM135.1 608H132.5V598.16H134.94V599.34C135.8 598.02 136.8 597.9 137.86 597.9H138.2V600.56C137.96 600.52 137.72 600.5 137.48 600.5C135.88 600.5 135.1 601.3 135.1 602.88V608ZM144.398 604.26L144.418 603.18C144.158 603.44 143.698 603.58 142.738 603.76C141.258 604.04 140.778 604.46 140.778 605.3C140.778 606.04 141.218 606.4 142.038 606.4C143.378 606.4 144.378 605.42 144.398 604.26ZM147.018 608H144.598C144.518 607.76 144.458 607.42 144.438 607.12C143.818 607.8 142.778 608.26 141.458 608.26C139.218 608.26 138.178 607.16 138.178 605.56C138.178 602.72 140.078 602.4 142.698 602.04C143.998 601.86 144.358 601.6 144.358 600.92C144.358 600.28 143.718 599.9 142.698 599.9C141.518 599.9 141.038 600.48 140.918 601.36H138.498C138.538 599.32 139.658 597.9 142.818 597.9C145.938 597.9 147.018 599.3 147.018 601.78V608ZM161.409 601.14H158.909C158.769 600.18 158.249 599.84 157.069 599.84C156.089 599.84 155.529 600.08 155.529 600.66C155.529 601.24 156.069 601.48 157.129 601.78C158.249 602.1 159.309 602.32 160.069 602.62C161.109 603.04 161.689 603.72 161.689 605C161.689 607.04 160.189 608.26 157.389 608.26C154.369 608.26 152.689 606.84 152.649 604.84H155.329C155.329 605.76 156.109 606.3 157.369 606.3C158.289 606.3 159.109 606.02 159.109 605.28C159.109 604.58 158.369 604.36 157.529 604.16C155.869 603.76 154.949 603.48 154.249 603.04C153.329 602.46 153.009 601.7 153.009 600.82C153.009 599.16 154.149 597.9 157.149 597.9C159.989 597.9 161.269 599.02 161.409 601.14ZM164.882 602.12H168.902C168.862 600.66 167.902 599.96 166.882 599.96C165.842 599.96 164.982 600.76 164.882 602.12ZM171.582 603.76H164.802C164.882 605.24 165.722 606.2 167.002 606.2C167.842 606.2 168.582 605.78 168.762 605.1H171.442C170.842 607.12 169.222 608.26 167.122 608.26C163.842 608.26 162.202 606.46 162.202 602.9C162.202 599.86 163.942 597.9 166.962 597.9C169.982 597.9 171.582 599.86 171.582 603.76ZM175.081 608H172.481V598.16H174.921V599.34C175.781 598.02 176.781 597.9 177.841 597.9H178.181V600.56C177.941 600.52 177.701 600.5 177.461 600.5C175.861 600.5 175.081 601.3 175.081 602.88V608ZM189.691 604.26L189.711 603.18C189.451 603.44 188.991 603.58 188.031 603.76C186.551 604.04 186.071 604.46 186.071 605.3C186.071 606.04 186.511 606.4 187.331 606.4C188.671 606.4 189.671 605.42 189.691 604.26ZM192.311 608H189.891C189.811 607.76 189.751 607.42 189.731 607.12C189.111 607.8 188.071 608.26 186.751 608.26C184.511 608.26 183.471 607.16 183.471 605.56C183.471 602.72 185.371 602.4 187.991 602.04C189.291 601.86 189.651 601.6 189.651 600.92C189.651 600.28 189.011 599.9 187.991 599.9C186.811 599.9 186.331 600.48 186.211 601.36H183.791C183.831 599.32 184.951 597.9 188.111 597.9C191.231 597.9 192.311 599.3 192.311 601.78V608ZM196.058 608H193.458V594.56H196.058V608ZM199.609 602.12H203.629C203.589 600.66 202.629 599.96 201.609 599.96C200.569 599.96 199.709 600.76 199.609 602.12ZM206.309 603.76H199.529C199.609 605.24 200.449 606.2 201.729 606.2C202.569 606.2 203.309 605.78 203.489 605.1H206.169C205.569 607.12 203.949 608.26 201.849 608.26C198.569 608.26 196.929 606.46 196.929 602.9C196.929 599.86 198.669 597.9 201.689 597.9C204.709 597.9 206.309 599.86 206.309 603.76ZM209.808 608H207.208V598.16H209.648V599.34C210.508 598.02 211.508 597.9 212.567 597.9H212.908V600.56C212.668 600.52 212.428 600.5 212.188 600.5C210.588 600.5 209.808 601.3 209.808 602.88V608ZM219.213 604.08V601.52H221.633V604.32C221.633 606.4 220.433 608.26 217.653 608.26C214.773 608.26 213.633 606.42 213.633 604.3V595.5H216.193V598.16H221.633V600H216.193V604.04C216.193 605.28 216.633 606 217.693 606C218.733 606 219.213 605.3 219.213 604.08ZM228.656 604.26L228.676 603.18C228.416 603.44 227.956 603.58 226.996 603.76C225.516 604.04 225.036 604.46 225.036 605.3C225.036 606.04 225.476 606.4 226.296 606.4C227.636 606.4 228.636 605.42 228.656 604.26ZM231.276 608H228.856C228.776 607.76 228.716 607.42 228.696 607.12C228.076 607.8 227.036 608.26 225.716 608.26C223.476 608.26 222.436 607.16 222.436 605.56C222.436 602.72 224.336 602.4 226.956 602.04C228.256 601.86 228.616 601.6 228.616 600.92C228.616 600.28 227.976 599.9 226.956 599.9C225.776 599.9 225.296 600.48 225.176 601.36H222.756C222.796 599.32 223.916 597.9 227.076 597.9C230.196 597.9 231.276 599.3 231.276 601.78V608ZM237.082 606.14C238.322 606.14 239.282 604.98 239.282 603.32C239.282 601.18 238.542 600.12 237.102 600.12C235.582 600.12 234.862 601.14 234.862 603.16C234.862 604.92 235.782 606.14 237.082 606.14ZM241.742 608H239.242L239.222 606.8C238.602 607.8 237.682 608.26 236.482 608.26C234.002 608.26 232.222 606.3 232.222 602.98C232.222 600 233.722 597.9 236.262 597.9C237.482 597.9 238.442 598.4 239.182 599.44V594.56H241.742V608ZM247.731 606.08C249.311 606.08 250.111 605.08 250.111 603.08C250.111 601.08 249.311 600.1 247.731 600.1C246.151 600.1 245.351 601.08 245.351 603.08C245.351 605.08 246.151 606.08 247.731 606.08ZM247.731 608.26C244.551 608.26 242.671 606.14 242.671 603.08C242.671 599.96 244.611 597.9 247.731 597.9C250.811 597.9 252.731 599.94 252.731 603.08C252.731 606.2 250.791 608.26 247.731 608.26ZM267.417 608H264.797V602.04C264.797 600.52 264.357 600.1 263.117 600.1C261.757 600.1 261.097 600.86 261.097 602.36V608H258.497V598.16H260.977V599.6C261.577 598.5 262.577 597.9 264.157 597.9C266.037 597.9 267.417 599.04 267.417 601.18V608ZM274.515 604.26L274.535 603.18C274.275 603.44 273.815 603.58 272.855 603.76C271.375 604.04 270.895 604.46 270.895 605.3C270.895 606.04 271.335 606.4 272.155 606.4C273.495 606.4 274.495 605.42 274.515 604.26ZM277.135 608H274.715C274.635 607.76 274.575 607.42 274.555 607.12C273.935 607.8 272.895 608.26 271.575 608.26C269.335 608.26 268.295 607.16 268.295 605.56C268.295 602.72 270.195 602.4 272.815 602.04C274.115 601.86 274.475 601.6 274.475 600.92C274.475 600.28 273.835 599.9 272.815 599.9C271.635 599.9 271.155 600.48 271.035 601.36H268.615C268.655 599.32 269.775 597.9 272.935 597.9C276.055 597.9 277.135 599.3 277.135 601.78V608ZM286.686 608H284.126V600H282.666V598.16H284.126C284.126 595.76 285.506 594.56 288.306 594.56V596.66C286.986 596.66 286.686 597.02 286.686 598.16H288.366V600H286.686V608ZM291.604 608H289.004V598.16H291.444V599.34C292.304 598.02 293.304 597.9 294.364 597.9H294.704V600.56C294.464 600.52 294.224 600.5 293.984 600.5C292.384 600.5 291.604 601.3 291.604 602.88V608ZM297.285 602.12H301.305C301.265 600.66 300.305 599.96 299.285 599.96C298.245 599.96 297.385 600.76 297.285 602.12ZM303.985 603.76H297.205C297.285 605.24 298.125 606.2 299.405 606.2C300.245 606.2 300.985 605.78 301.165 605.1H303.845C303.245 607.12 301.625 608.26 299.525 608.26C296.245 608.26 294.605 606.46 294.605 602.9C294.605 599.86 296.345 597.9 299.365 597.9C302.385 597.9 303.985 599.86 303.985 603.76ZM316.623 608.54H319.063C319.063 611.08 317.443 612.66 315.323 612.66C313.183 612.66 311.603 610.98 311.603 608.56V606.78C310.863 607.78 309.923 608.26 308.723 608.26C306.183 608.26 304.683 606.16 304.683 603.18C304.683 599.86 306.463 597.9 308.943 597.9C310.143 597.9 311.063 598.36 311.683 599.36L311.703 598.16H314.203V608.58C314.203 609.92 314.663 610.36 315.483 610.36C316.243 610.36 316.623 609.84 316.623 608.54ZM309.563 606.04C311.003 606.04 311.743 604.98 311.743 602.84C311.743 601.18 310.783 600.02 309.543 600.02C308.243 600.02 307.323 601.24 307.323 603C307.323 605.02 308.043 606.04 309.563 606.04ZM323.997 608H321.537V606.62C320.857 607.74 319.837 608.26 318.477 608.26C316.517 608.26 315.137 606.8 315.137 604.64V598.16H317.737V604.24C317.737 605.48 318.297 606.08 319.397 606.08C320.717 606.08 321.417 605.14 321.417 603.84V598.16H323.997V608ZM327.597 602.12H331.617C331.577 600.66 330.617 599.96 329.597 599.96C328.557 599.96 327.697 600.76 327.597 602.12ZM334.297 603.76H327.517C327.597 605.24 328.437 606.2 329.717 606.2C330.557 606.2 331.297 605.78 331.477 605.1H334.157C333.557 607.12 331.937 608.26 329.837 608.26C326.557 608.26 324.917 606.46 324.917 602.9C324.917 599.86 326.657 597.9 329.677 597.9C332.697 597.9 334.297 599.86 334.297 603.76ZM332.377 596.78L329.677 594.42L326.977 596.78L326.057 595.76L328.617 593.08H330.737L333.297 595.76L332.377 596.78ZM344.116 608H341.496V602.04C341.496 600.52 341.056 600.1 339.816 600.1C338.456 600.1 337.796 600.86 337.796 602.36V608H335.196V598.16H337.676V599.6C338.276 598.5 339.276 597.9 340.856 597.9C342.736 597.9 344.116 599.04 344.116 601.18V608ZM351.494 604.44H354.114C353.834 606.72 351.974 608.26 349.594 608.26C346.914 608.26 345.074 606.48 345.074 602.96C345.074 599.44 346.914 597.9 349.674 597.9C352.234 597.9 353.974 599.36 354.134 601.68H351.514C351.374 600.66 350.634 600.06 349.654 600.06C348.554 600.06 347.654 600.76 347.654 602.9C347.654 605.04 348.554 606.08 349.574 606.08C350.594 606.08 351.394 605.5 351.494 604.44ZM357.543 608H354.943V598.16H357.543V608ZM357.543 596.98H354.943V594.56H357.543V596.98ZM364.691 604.26L364.711 603.18C364.451 603.44 363.991 603.58 363.031 603.76C361.551 604.04 361.071 604.46 361.071 605.3C361.071 606.04 361.511 606.4 362.331 606.4C363.671 606.4 364.671 605.42 364.691 604.26ZM367.311 608H364.891C364.811 607.76 364.751 607.42 364.731 607.12C364.111 607.8 363.071 608.26 361.751 608.26C359.511 608.26 358.471 607.16 358.471 605.56C358.471 602.72 360.371 602.4 362.991 602.04C364.291 601.86 364.651 601.6 364.651 600.92C364.651 600.28 364.011 599.9 362.991 599.9C361.811 599.9 361.331 600.48 361.211 601.36H358.791C358.831 599.32 359.951 597.9 363.111 597.9C366.231 597.9 367.311 599.3 367.311 601.78V608ZM86.4377 632.54H88.8777C88.8777 635.08 87.2577 636.66 85.1377 636.66C82.9977 636.66 81.4177 634.98 81.4177 632.56V630.78C80.6777 631.78 79.7377 632.26 78.5377 632.26C75.9977 632.26 74.4977 630.16 74.4977 627.18C74.4977 623.86 76.2777 621.9 78.7577 621.9C79.9577 621.9 80.8777 622.36 81.4977 623.36L81.5177 622.16H84.0177V632.58C84.0177 633.92 84.4777 634.36 85.2977 634.36C86.0577 634.36 86.4377 633.84 86.4377 632.54ZM79.3777 630.04C80.8177 630.04 81.5577 628.98 81.5577 626.84C81.5577 625.18 80.5977 624.02 79.3577 624.02C78.0577 624.02 77.1377 625.24 77.1377 627C77.1377 629.02 77.8577 630.04 79.3777 630.04ZM93.8116 632H91.3516V630.62C90.6716 631.74 89.6516 632.26 88.2916 632.26C86.3316 632.26 84.9516 630.8 84.9516 628.64V622.16H87.5516V628.24C87.5516 629.48 88.1116 630.08 89.2116 630.08C90.5316 630.08 91.2316 629.14 91.2316 627.84V622.16H93.8116V632ZM97.4116 626.12H101.432C101.392 624.66 100.432 623.96 99.4116 623.96C98.3716 623.96 97.5116 624.76 97.4116 626.12ZM104.112 627.76H97.3316C97.4116 629.24 98.2516 630.2 99.5316 630.2C100.372 630.2 101.112 629.78 101.292 629.1H103.972C103.372 631.12 101.752 632.26 99.6516 632.26C96.3716 632.26 94.7316 630.46 94.7316 626.9C94.7316 623.86 96.4716 621.9 99.4916 621.9C102.512 621.9 104.112 623.86 104.112 627.76ZM115.614 632H112.894L109.374 622.16H112.274L114.334 628.66L116.414 622.16H119.154L115.614 632ZM124.01 630.08C125.59 630.08 126.39 629.08 126.39 627.08C126.39 625.08 125.59 624.1 124.01 624.1C122.43 624.1 121.63 625.08 121.63 627.08C121.63 629.08 122.43 630.08 124.01 630.08ZM124.01 632.26C120.83 632.26 118.95 630.14 118.95 627.08C118.95 623.96 120.89 621.9 124.01 621.9C127.09 621.9 129.01 623.94 129.01 627.08C129.01 630.2 127.07 632.26 124.01 632.26ZM136.192 628.44H138.812C138.532 630.72 136.672 632.26 134.292 632.26C131.612 632.26 129.772 630.48 129.772 626.96C129.772 623.44 131.612 621.9 134.372 621.9C136.932 621.9 138.672 623.36 138.832 625.68H136.212C136.072 624.66 135.332 624.06 134.352 624.06C133.252 624.06 132.352 624.76 132.352 626.9C132.352 629.04 133.252 630.08 134.272 630.08C135.292 630.08 136.092 629.5 136.192 628.44ZM142.041 626.12H146.061C146.021 624.66 145.061 623.96 144.041 623.96C143.001 623.96 142.141 624.76 142.041 626.12ZM148.741 627.76H141.961C142.041 629.24 142.881 630.2 144.161 630.2C145.001 630.2 145.741 629.78 145.921 629.1H148.601C148.001 631.12 146.381 632.26 144.281 632.26C141.001 632.26 139.361 630.46 139.361 626.9C139.361 623.86 141.101 621.9 144.121 621.9C147.141 621.9 148.741 623.86 148.741 627.76ZM146.821 620.78L144.121 618.42L141.421 620.78L140.501 619.76L143.061 617.08H145.181L147.741 619.76L146.821 620.78ZM159.103 630.04C160.623 630.04 161.343 629.02 161.343 627C161.343 625.24 160.423 624.02 159.123 624.02C157.883 624.02 156.923 625.18 156.923 626.84C156.923 628.98 157.663 630.04 159.103 630.04ZM157.023 636.66H154.463V622.16H156.963L156.983 623.36C157.603 622.36 158.523 621.9 159.723 621.9C162.203 621.9 163.983 623.86 163.983 627.18C163.983 630.16 162.483 632.26 159.943 632.26C158.723 632.26 157.763 631.76 157.023 630.72V636.66ZM167.532 632H164.932V622.16H167.372V623.34C168.232 622.02 169.232 621.9 170.292 621.9H170.632V624.56C170.392 624.52 170.152 624.5 169.912 624.5C168.312 624.5 167.532 625.3 167.532 626.88V632ZM173.212 626.12H177.232C177.192 624.66 176.232 623.96 175.212 623.96C174.172 623.96 173.312 624.76 173.212 626.12ZM179.912 627.76H173.132C173.212 629.24 174.052 630.2 175.332 630.2C176.172 630.2 176.912 629.78 177.092 629.1H179.772C179.172 631.12 177.552 632.26 175.452 632.26C172.172 632.26 170.532 630.46 170.532 626.9C170.532 623.86 172.272 621.9 175.292 621.9C178.312 621.9 179.912 623.86 179.912 627.76ZM187.051 628.44H189.671C189.391 630.72 187.531 632.26 185.151 632.26C182.471 632.26 180.631 630.48 180.631 626.96C180.631 623.44 182.471 621.9 185.231 621.9C187.791 621.9 189.531 623.36 189.691 625.68H187.071C186.931 624.66 186.191 624.06 185.211 624.06C184.111 624.06 183.211 624.76 183.211 626.9C183.211 629.04 184.111 630.08 185.131 630.08C186.151 630.08 186.951 629.5 187.051 628.44ZM193.1 632H190.5V622.16H193.1V632ZM193.1 620.98H190.5V618.56H193.1V620.98ZM202.708 625.14H200.208C200.068 624.18 199.548 623.84 198.368 623.84C197.388 623.84 196.828 624.08 196.828 624.66C196.828 625.24 197.368 625.48 198.428 625.78C199.548 626.1 200.608 626.32 201.368 626.62C202.408 627.04 202.988 627.72 202.988 629C202.988 631.04 201.488 632.26 198.688 632.26C195.668 632.26 193.988 630.84 193.948 628.84H196.628C196.628 629.76 197.408 630.3 198.668 630.3C199.588 630.3 200.408 630.02 200.408 629.28C200.408 628.58 199.668 628.36 198.828 628.16C197.168 627.76 196.248 627.48 195.548 627.04C194.628 626.46 194.308 625.7 194.308 624.82C194.308 623.16 195.448 621.9 198.448 621.9C201.288 621.9 202.568 623.02 202.708 625.14ZM209.681 628.26L209.701 627.18C209.441 627.44 208.981 627.58 208.021 627.76C206.541 628.04 206.061 628.46 206.061 629.3C206.061 630.04 206.501 630.4 207.321 630.4C208.661 630.4 209.661 629.42 209.681 628.26ZM212.301 632H209.881C209.801 631.76 209.741 631.42 209.721 631.12C209.101 631.8 208.061 632.26 206.741 632.26C204.501 632.26 203.461 631.16 203.461 629.56C203.461 626.72 205.361 626.4 207.981 626.04C209.281 625.86 209.641 625.6 209.641 624.92C209.641 624.28 209.001 623.9 207.981 623.9C206.801 623.9 206.321 624.48 206.201 625.36H203.781C203.821 623.32 204.941 621.9 208.101 621.9C211.221 621.9 212.301 623.3 212.301 625.78V632ZM224.512 628.44H227.132C226.852 630.72 224.992 632.26 222.612 632.26C219.932 632.26 218.092 630.48 218.092 626.96C218.092 623.44 219.932 621.9 222.692 621.9C225.252 621.9 226.992 623.36 227.152 625.68H224.532C224.392 624.66 223.652 624.06 222.672 624.06C221.572 624.06 220.672 624.76 220.672 626.9C220.672 629.04 221.572 630.08 222.592 630.08C223.612 630.08 224.412 629.5 224.512 628.44ZM232.741 630.08C234.321 630.08 235.121 629.08 235.121 627.08C235.121 625.08 234.321 624.1 232.741 624.1C231.161 624.1 230.361 625.08 230.361 627.08C230.361 629.08 231.161 630.08 232.741 630.08ZM232.741 632.26C229.561 632.26 227.681 630.14 227.681 627.08C227.681 623.96 229.621 621.9 232.741 621.9C235.821 621.9 237.741 623.94 237.741 627.08C237.741 630.2 235.801 632.26 232.741 632.26ZM247.602 632H244.982V626.04C244.982 624.52 244.542 624.1 243.302 624.1C241.942 624.1 241.282 624.86 241.282 626.36V632H238.682V622.16H241.162V623.6C241.762 622.5 242.762 621.9 244.342 621.9C246.222 621.9 247.602 623.04 247.602 625.18V632ZM257.161 625.14H254.661C254.521 624.18 254.001 623.84 252.821 623.84C251.841 623.84 251.281 624.08 251.281 624.66C251.281 625.24 251.821 625.48 252.881 625.78C254.001 626.1 255.061 626.32 255.821 626.62C256.861 627.04 257.441 627.72 257.441 629C257.441 631.04 255.941 632.26 253.141 632.26C250.121 632.26 248.441 630.84 248.401 628.84H251.081C251.081 629.76 251.861 630.3 253.121 630.3C254.041 630.3 254.861 630.02 254.861 629.28C254.861 628.58 254.121 628.36 253.281 628.16C251.621 627.76 250.701 627.48 250.001 627.04C249.081 626.46 248.761 625.7 248.761 624.82C248.761 623.16 249.901 621.9 252.901 621.9C255.741 621.9 257.021 623.02 257.161 625.14ZM267.034 632H264.574V630.62C263.894 631.74 262.874 632.26 261.514 632.26C259.554 632.26 258.174 630.8 258.174 628.64V622.16H260.774V628.24C260.774 629.48 261.334 630.08 262.434 630.08C263.754 630.08 264.454 629.14 264.454 627.84V622.16H267.034V632ZM282.254 632H279.714V626.04C279.714 624.86 279.094 624.02 278.174 624.02C277.214 624.02 276.514 624.92 276.514 626.12V632H273.914V626.08C273.914 624.5 273.494 624.1 272.354 624.1C271.314 624.1 270.774 624.74 270.774 626.02V632H268.174V622.16H270.614V623.6C271.274 622.3 272.194 621.9 273.494 621.9C274.834 621.9 275.474 622.32 276.234 623.46C276.774 622.38 277.654 621.9 278.894 621.9C280.874 621.9 282.254 623.34 282.254 625.18V632ZM285.912 632H283.312V622.16H285.912V632ZM285.912 620.98H283.312V618.56H285.912V620.98ZM291.8 626.86H286.84V624.84H291.8V626.86ZM295.306 632H292.706V618.56H295.306V632ZM301.237 630.08C302.817 630.08 303.617 629.08 303.617 627.08C303.617 625.08 302.817 624.1 301.237 624.1C299.657 624.1 298.857 625.08 298.857 627.08C298.857 629.08 299.657 630.08 301.237 630.08ZM301.237 632.26C298.057 632.26 296.177 630.14 296.177 627.08C296.177 623.96 298.117 621.9 301.237 621.9C304.317 621.9 306.237 623.94 306.237 627.08C306.237 630.2 304.297 632.26 301.237 632.26ZM315.598 625.14H313.098C312.958 624.18 312.438 623.84 311.258 623.84C310.278 623.84 309.718 624.08 309.718 624.66C309.718 625.24 310.258 625.48 311.318 625.78C312.438 626.1 313.498 626.32 314.258 626.62C315.298 627.04 315.878 627.72 315.878 629C315.878 631.04 314.378 632.26 311.578 632.26C308.558 632.26 306.878 630.84 306.838 628.84H309.518C309.518 629.76 310.298 630.3 311.558 630.3C312.478 630.3 313.298 630.02 313.298 629.28C313.298 628.58 312.558 628.36 311.718 628.16C310.058 627.76 309.138 627.48 308.438 627.04C307.518 626.46 307.198 625.7 307.198 624.82C307.198 623.16 308.338 621.9 311.338 621.9C314.178 621.9 315.458 623.02 315.598 625.14ZM319.332 632H316.552V629.3H319.332V632Z" fill="#F2F0EF"/>
<path d="M245.611 407.569L273.583 379.333C279.213 373.704 283.523 367.282 286.514 360.069C289.505 352.856 291 345.292 291 337.375C291 320.838 285.24 306.806 273.721 295.279C262.201 283.753 248.169 277.993 231.625 278C223.708 278 216.144 279.495 208.931 282.486C201.718 285.477 195.296 289.787 189.667 295.417L161.431 323.389L245.611 407.569ZM160.375 468C168.292 468 175.856 466.505 183.069 463.514C190.282 460.523 196.704 456.213 202.333 450.583L230.569 422.611L146.389 338.431L118.417 366.667C112.787 372.296 108.477 378.718 105.486 385.931C102.495 393.144 101 400.708 101 408.625C101 425.162 106.763 439.19 118.29 450.71C129.817 462.23 143.845 467.993 160.375 468Z" fill="#55CE98"/>
</g>
<defs>
<clipPath id="clip0_51_458">
<rect width="390" height="852" fill="white"/>
</clipPath>
</defs>
</svg>
